<?xml version="1.0" encoding="utf-8"?>
<!-- Generator: Adobe Illustrator 18.1.1, SVG Export Plug-In . SVG Version: 6.00 Build 0)  -->
<!DOCTYPE svg PUBLIC "-//W3C//DTD SVG 1.1//EN" "http://www.w3.org/Graphics/SVG/1.1/DTD/svg11.dtd">
<svg version="1.1" id="Layer_1" xmlns="http://www.w3.org/2000/svg" xmlns:xlink="http://www.w3.org/1999/xlink" x="0px" y="0px"
	 width="598px" height="156px" viewBox="0 0 598 156" enable-background="new 0 0 598 156" xml:space="preserve">
<path fill="#FFFFFF" d="M595.2,1c-3.6,0.6-7.1,1.3-10.7,1.8c-5.9,0.9-11.8,1.6-17.7,2.4c-6,0.9-12.1,1.8-18.1,2.6
	c-5.8,0.8-11.5,1.6-17.3,2.5c-1,0.2-2,1-2.7,1.8c-9.7,9.9-19.3,19.9-28.9,29.8c-0.2,0.2-0.4,0.4-1,0.4c2.9-3.9,5.8-7.7,8.9-11.8
	c-3.5-1.2-6.7-2.3-10-3.4c-2.5-0.8-5.1-1.3-7.4-2.4c-2.7-1.2-4.7-1-7.1,0.9c-3.4,2.7-7.1,5-11.1,7.7c5.3,0.8,10.2,1.6,15.4,2.4
	c-0.1-2.6-0.2-5.2-0.3-7.7c0.1,0,0.3,0,0.4-0.1c1.2,5.4,2.5,10.9,3.7,16.3c0.4,1.7,0.8,3.4,1.1,5.1c0.3,1.6,1.1,2.4,2.5,3.1
	c14.2,6.7,28.3,13.6,42.4,20.4c0.3,0.2,0.6,0.4,0.9,0.8c-3-1-6-1.9-9.4-3c6.6,9,13,17.7,19.4,26.3c0.1,0,0.2-0.1,0.3-0.1
	C543.2,81,538.1,65,533.1,49.5c16.4-8.4,32.6-16.8,48.9-25.1c0-0.2-0.1-0.4-0.1-0.5c-3.4,0.3-6.9,0.7-10.3,0.7c-3.7,0-6.2,2.3-9,4
	c-3.8,2.4-7.5,4.9-11.5,6.9c3-2.3,6-4.5,9-6.8C572,19.8,583.9,10.9,595.8,2c0.3-0.3,0.8-0.4,1.2-0.5C596.4,1.3,595.8,1.2,595.2,1z"
	/>
<path fill="#FFFFFF" d="M2.2,90c2.4,0.4,4.9,0.9,7.3,1.2c4,0.6,8,1.1,12.1,1.7c4.1,0.6,8.2,1.2,12.3,1.8c3.9,0.6,7.8,1.1,11.8,1.7
	c0.7,0.1,1.3,0.7,1.9,1.2c6.6,6.7,13.1,13.5,19.7,20.2c0.1,0.1,0.3,0.3,0.7,0.3c-2-2.6-3.9-5.2-6-8c2.4-0.8,4.6-1.6,6.8-2.3
	c1.7-0.6,3.5-0.9,5.1-1.6c1.8-0.8,3.2-0.6,4.8,0.6c2.3,1.8,4.8,3.4,7.5,5.2c-3.6,0.6-6.9,1.1-10.4,1.6c0.1-1.8,0.2-3.5,0.2-5.2
	c-0.1,0-0.2,0-0.3,0c-0.8,3.7-1.7,7.4-2.5,11c-0.3,1.1-0.5,2.3-0.7,3.5c-0.2,1.1-0.7,1.6-1.7,2.1c-9.6,4.6-19.3,9.2-28.9,13.8
	c-0.2,0.1-0.4,0.2-0.6,0.6c2-0.7,4.1-1.3,6.4-2.1c-4.5,6.1-8.8,12-13.2,17.8c-0.1,0-0.1-0.1-0.2-0.1c3.5-10.8,6.9-21.6,10.3-32.1
	c-11.1-5.7-22.2-11.4-33.2-17c0-0.1,0-0.2,0.1-0.4c2.3,0.2,4.7,0.5,7,0.5c2.5,0,4.2,1.5,6.1,2.7c2.6,1.6,5.1,3.3,7.8,4.7
	c-2-1.5-4.1-3.1-6.1-4.6c-8.1-6-16.2-12.1-24.3-18.1c-0.2-0.2-0.5-0.2-0.8-0.4C1.4,90.2,1.8,90.1,2.2,90z"/>
<path fill="#2090EA" d="M85.7,106.2L84,105l0.3-0.3C133.3,62.5,206,30.6,278.8,19.5c74.3-11.3,150.6-4.9,193.4,4l1.9,0.4l-2.3,1.6
	c-42.6-8.9-118.6-15.3-192.6-4C206.6,32.5,134.3,64.2,85.7,106.2z"/>
</svg>
