<?xml version="1.0" encoding="utf-8"?>
<!-- Generator: Adobe Illustrator 18.1.1, SVG Export Plug-In . SVG Version: 6.00 Build 0)  -->
<!DOCTYPE svg PUBLIC "-//W3C//DTD SVG 1.1//EN" "http://www.w3.org/Graphics/SVG/1.1/DTD/svg11.dtd">
<svg version="1.1" id="Artwork" xmlns="http://www.w3.org/2000/svg" xmlns:xlink="http://www.w3.org/1999/xlink" x="0px" y="0px"
	 width="486px" height="192px" viewBox="0 0 486 192" enable-background="new 0 0 486 192" xml:space="preserve">
<g>
	<g>
		<g>
			<path fill="#C8C5BE" d="M15.1,190.1c3.4-2.8,6.8-5.6,10.1-8.4c1.5-1.2-0.6-3.3-2.1-2.1c-3.4,2.8-6.8,5.6-10.1,8.4
				C11.5,189.2,13.6,191.3,15.1,190.1L15.1,190.1z"/>
		</g>
	</g>
	<g>
		<g>
			<path fill="#C8C5BE" d="M34.8,173.9c3.4-2.8,6.8-5.6,10.1-8.4c1.5-1.2-0.6-3.3-2.1-2.1c-3.4,2.8-6.8,5.6-10.1,8.4
				C31.2,173,33.3,175.1,34.8,173.9L34.8,173.9z"/>
		</g>
	</g>
	<g>
		<g>
			<path fill="#C8C5BE" d="M54.6,157.7c3.4-2.8,6.8-5.6,10.1-8.4c1.5-1.2-0.6-3.3-2.1-2.1c-3.4,2.8-6.8,5.6-10.1,8.4
				C51,156.9,53.1,159,54.6,157.7L54.6,157.7z"/>
		</g>
	</g>
	<g>
		<g>
			<path fill="#C8C5BE" d="M74.3,141.6c3.4-2.8,6.8-5.6,10.1-8.4c1.5-1.2-0.6-3.3-2.1-2.1c-3.4,2.8-6.8,5.6-10.1,8.4
				C70.7,140.7,72.9,142.8,74.3,141.6L74.3,141.6z"/>
		</g>
	</g>
	<g>
		<g>
			<path fill="#C8C5BE" d="M94.1,125.4c3.4-2.8,6.8-5.6,10.1-8.4c1.5-1.2-0.6-3.3-2.1-2.1c-3.4,2.8-6.8,5.6-10.1,8.4
				C90.5,124.5,92.6,126.6,94.1,125.4L94.1,125.4z"/>
		</g>
	</g>
	<g>
		<g>
			<path fill="#C8C5BE" d="M113.9,109.3c3.4-2.8,6.8-5.6,10.1-8.4c1.5-1.2-0.6-3.3-2.1-2.1c-3.4,2.8-6.8,5.6-10.1,8.4
				C110.2,108.4,112.4,110.5,113.9,109.3L113.9,109.3z"/>
		</g>
	</g>
	<g>
		<g>
			<path fill="#C8C5BE" d="M133.6,93.1c3.4-2.8,6.8-5.6,10.1-8.4c1.5-1.2-0.6-3.3-2.1-2.1c-3.4,2.8-6.8,5.6-10.1,8.4
				C130,92.2,132.1,94.3,133.6,93.1L133.6,93.1z"/>
		</g>
	</g>
	<g>
		<g>
			<path fill="#C8C5BE" d="M153.4,76.9c3.4-2.8,6.8-5.6,10.1-8.4c1.5-1.2-0.6-3.3-2.1-2.1c-3.4,2.8-6.8,5.6-10.1,8.4
				C149.8,76,151.9,78.2,153.4,76.9L153.4,76.9z"/>
		</g>
	</g>
	<g>
		<g>
			<path fill="#C8C5BE" d="M173.1,60.8c3.4-2.8,6.8-5.6,10.1-8.4c1.5-1.2-0.6-3.3-2.1-2.1c-3.4,2.8-6.8,5.6-10.1,8.4
				C169.5,59.9,171.7,62,173.1,60.8L173.1,60.8z"/>
		</g>
	</g>
	<g>
		<g>
			<path fill="#C8C5BE" d="M192.9,44.6c3.4-2.8,6.8-5.6,10.1-8.4c1.5-1.2-0.6-3.3-2.1-2.1c-3.4,2.8-6.8,5.6-10.1,8.4
				C189.3,43.7,191.4,45.8,192.9,44.6L192.9,44.6z"/>
		</g>
	</g>
	<g>
		<g>
			<path fill="#C8C5BE" d="M212.7,28.4c3.4-2.8,6.8-5.6,10.1-8.4c1.5-1.2-0.6-3.3-2.1-2.1c-3.4,2.8-6.8,5.6-10.1,8.4
				C209,27.6,211.2,29.7,212.7,28.4L212.7,28.4z"/>
		</g>
	</g>
	<g>
		<g>
			<path fill="#C8C5BE" d="M232.4,12.3c3.4-2.8,6.8-5.6,10.1-8.4c1.5-1.2-0.6-3.3-2.1-2.1c-3.4,2.8-6.8,5.6-10.1,8.4
				C228.8,11.4,230.9,13.5,232.4,12.3L232.4,12.3z"/>
		</g>
	</g>
</g>
<g>
	<g>
		<g>
			<path fill="#C8C5BE" d="M472.6,187.9c-3.4-2.8-6.8-5.6-10.1-8.4c-1.5-1.2-3.6,0.9-2.1,2.1c3.4,2.8,6.8,5.6,10.1,8.4
				C471.9,191.3,474,189.2,472.6,187.9L472.6,187.9z"/>
		</g>
	</g>
	<g>
		<g>
			<path fill="#C8C5BE" d="M452.6,171.8c-3.4-2.8-6.8-5.6-10.1-8.4c-1.5-1.2-3.6,0.9-2.1,2.1c3.4,2.8,6.8,5.6,10.1,8.4
				C452,175.1,454.1,173,452.6,171.8L452.6,171.8z"/>
		</g>
	</g>
	<g>
		<g>
			<path fill="#C8C5BE" d="M432.7,155.6c-3.4-2.8-6.8-5.6-10.1-8.4c-1.5-1.2-3.6,0.9-2.1,2.1c3.4,2.8,6.8,5.6,10.1,8.4
				C432,159,434.2,156.9,432.7,155.6L432.7,155.6z"/>
		</g>
	</g>
	<g>
		<g>
			<path fill="#C8C5BE" d="M412.7,139.5c-3.4-2.8-6.8-5.6-10.1-8.4c-1.5-1.2-3.6,0.9-2.1,2.1c3.4,2.8,6.8,5.6,10.1,8.4
				C412.1,142.8,414.2,140.7,412.7,139.5L412.7,139.5z"/>
		</g>
	</g>
	<g>
		<g>
			<path fill="#C8C5BE" d="M392.8,123.3c-3.4-2.8-6.8-5.6-10.1-8.4c-1.5-1.2-3.6,0.9-2.1,2.1c3.4,2.8,6.8,5.6,10.1,8.4
				C392.1,126.6,394.3,124.5,392.8,123.3L392.8,123.3z"/>
		</g>
	</g>
	<g>
		<g>
			<path fill="#C8C5BE" d="M372.8,107.1c-3.4-2.8-6.8-5.6-10.1-8.4c-1.5-1.2-3.6,0.9-2.1,2.1c3.4,2.8,6.8,5.6,10.1,8.4
				C372.2,110.5,374.3,108.4,372.8,107.1L372.8,107.1z"/>
		</g>
	</g>
	<g>
		<g>
			<path fill="#C8C5BE" d="M352.9,91c-3.4-2.8-6.8-5.6-10.1-8.4c-1.5-1.2-3.6,0.9-2.1,2.1c3.4,2.8,6.8,5.6,10.1,8.4
				C352.3,94.3,354.4,92.2,352.9,91L352.9,91z"/>
		</g>
	</g>
	<g>
		<g>
			<path fill="#C8C5BE" d="M333,74.8c-3.4-2.8-6.8-5.6-10.1-8.4c-1.5-1.2-3.6,0.9-2.1,2.1c3.4,2.8,6.8,5.6,10.1,8.4
				C332.3,78.2,334.5,76,333,74.8L333,74.8z"/>
		</g>
	</g>
	<g>
		<g>
			<path fill="#C8C5BE" d="M313,58.6c-3.4-2.8-6.8-5.6-10.1-8.4c-1.5-1.2-3.6,0.9-2.1,2.1c3.4,2.8,6.8,5.6,10.1,8.4
				C312.4,62,314.5,59.9,313,58.6L313,58.6z"/>
		</g>
	</g>
	<g>
		<g>
			<path fill="#C8C5BE" d="M293.1,42.5c-3.4-2.8-6.8-5.6-10.1-8.4c-1.5-1.2-3.6,0.9-2.1,2.1c3.4,2.8,6.8,5.6,10.1,8.4
				C292.4,45.8,294.6,43.7,293.1,42.5L293.1,42.5z"/>
		</g>
	</g>
	<g>
		<g>
			<path fill="#C8C5BE" d="M273.1,26.3c-3.4-2.8-6.8-5.6-10.1-8.4c-1.5-1.2-3.6,0.9-2.1,2.1c3.4,2.8,6.8,5.6,10.1,8.4
				C272.5,29.7,274.6,27.6,273.1,26.3L273.1,26.3z"/>
		</g>
	</g>
	<g>
		<g>
			<path fill="#C8C5BE" d="M253.2,10.2c-3.4-2.8-6.8-5.6-10.1-8.4c-1.5-1.2-3.6,0.9-2.1,2.1c3.4,2.8,6.8,5.6,10.1,8.4
				C252.6,13.5,254.7,11.4,253.2,10.2L253.2,10.2z"/>
		</g>
	</g>
</g>
<g>
	<g>
		<g>
			<path fill="#C8C5BE" d="M472,188c-3.8-2.1-7.7-4.3-11.5-6.4c-1.7-0.9-3.2,1.7-1.5,2.6c3.8,2.1,7.7,4.3,11.5,6.4
				C472.2,191.5,473.7,188.9,472,188L472,188z"/>
		</g>
	</g>
	<g>
		<g>
			<path fill="#C8C5BE" d="M447,174.6c-3.8-2.1-7.7-4.3-11.5-6.4c-1.7-0.9-3.2,1.7-1.5,2.6c3.8,2.1,7.7,4.3,11.5,6.4
				C447.2,178.2,448.7,175.6,447,174.6L447,174.6z"/>
		</g>
	</g>
	<g>
		<g>
			<path fill="#C8C5BE" d="M422,161.3c-3.8-2.1-7.7-4.3-11.5-6.4c-1.7-0.9-3.2,1.7-1.5,2.6c3.8,2.1,7.7,4.3,11.5,6.4
				C422.2,164.8,423.7,162.2,422,161.3L422,161.3z"/>
		</g>
	</g>
	<g>
		<g>
			<path fill="#C8C5BE" d="M397,147.9c-3.8-2.1-7.7-4.3-11.5-6.4c-1.7-0.9-3.2,1.7-1.5,2.6c3.8,2.1,7.7,4.3,11.5,6.4
				C397.2,151.4,398.7,148.8,397,147.9L397,147.9z"/>
		</g>
	</g>
	<g>
		<g>
			<path fill="#C8C5BE" d="M372.1,134.5c-3.8-2.1-7.7-4.3-11.5-6.4c-1.7-0.9-3.2,1.7-1.5,2.6c3.8,2.1,7.7,4.3,11.5,6.4
				C372.2,138.1,373.7,135.5,372.1,134.5L372.1,134.5z"/>
		</g>
	</g>
	<g>
		<g>
			<path fill="#C8C5BE" d="M347.1,121.2c-3.8-2.1-7.7-4.3-11.5-6.4c-1.7-0.9-3.2,1.7-1.5,2.6c3.8,2.1,7.7,4.3,11.5,6.4
				C347.2,124.7,348.8,122.1,347.1,121.2L347.1,121.2z"/>
		</g>
	</g>
	<g>
		<g>
			<path fill="#C8C5BE" d="M322.1,107.8c-3.8-2.1-7.7-4.3-11.5-6.4c-1.7-0.9-3.2,1.7-1.5,2.6c3.8,2.1,7.7,4.3,11.5,6.4
				C322.3,111.3,323.8,108.7,322.1,107.8L322.1,107.8z"/>
		</g>
	</g>
	<g>
		<g>
			<path fill="#C8C5BE" d="M297.1,94.4c-3.8-2.1-7.7-4.3-11.5-6.4c-1.7-0.9-3.2,1.7-1.5,2.6c3.8,2.1,7.7,4.3,11.5,6.4
				C297.3,98,298.8,95.4,297.1,94.4L297.1,94.4z"/>
		</g>
	</g>
</g>
<g>
	<g>
		<g>
			<path fill="#C8C5BE" d="M471.6,187.9c-4.2-1.3-8.4-2.6-12.6-4c-1.8-0.6-2.6,2.3-0.8,2.9c4.2,1.3,8.4,2.6,12.6,4
				C472.7,191.3,473.5,188.4,471.6,187.9L471.6,187.9z"/>
		</g>
	</g>
	<g>
		<g>
			<path fill="#C8C5BE" d="M446.8,180.5c-4.2-1.3-8.4-2.6-12.6-4c-1.8-0.6-2.6,2.3-0.8,2.9c4.2,1.3,8.4,2.6,12.6,4
				C447.9,183.9,448.7,181,446.8,180.5L446.8,180.5z"/>
		</g>
	</g>
	<g>
		<g>
			<path fill="#C8C5BE" d="M422,173c-4.2-1.3-8.4-2.6-12.6-4c-1.8-0.6-2.6,2.3-0.8,2.9c4.2,1.3,8.4,2.6,12.6,4
				C423.1,176.5,423.8,173.6,422,173L422,173z"/>
		</g>
	</g>
	<g>
		<g>
			<path fill="#C8C5BE" d="M397.2,165.6c-4.2-1.3-8.4-2.6-12.6-4c-1.8-0.6-2.6,2.3-0.8,2.9c4.2,1.3,8.4,2.6,12.6,4
				C398.2,169.1,399,166.2,397.2,165.6L397.2,165.6z"/>
		</g>
	</g>
	<g>
		<g>
			<path fill="#C8C5BE" d="M372.4,158.2c-4.2-1.3-8.4-2.6-12.6-4c-1.8-0.6-2.6,2.3-0.8,2.9c4.2,1.3,8.4,2.6,12.6,4
				C373.4,161.7,374.2,158.8,372.4,158.2L372.4,158.2z"/>
		</g>
	</g>
	<g>
		<g>
			<path fill="#C8C5BE" d="M347.6,150.8c-4.2-1.3-8.4-2.6-12.6-4c-1.8-0.6-2.6,2.3-0.8,2.9c4.2,1.3,8.4,2.6,12.6,4
				C348.6,154.3,349.4,151.4,347.6,150.8L347.6,150.8z"/>
		</g>
	</g>
	<g>
		<g>
			<path fill="#C8C5BE" d="M322.7,143.4c-4.2-1.3-8.4-2.6-12.6-4c-1.8-0.6-2.6,2.3-0.8,2.9c4.2,1.3,8.4,2.6,12.6,4
				C323.8,146.9,324.6,144,322.7,143.4L322.7,143.4z"/>
		</g>
	</g>
</g>
<g>
	<g>
		<g>
			<path fill="#C8C5BE" d="M14.2,190.8c4.2-1.3,8.4-2.6,12.6-4c1.8-0.6,1.1-3.5-0.8-2.9c-4.2,1.3-8.4,2.6-12.6,4
				C11.5,188.4,12.3,191.3,14.2,190.8L14.2,190.8z"/>
		</g>
	</g>
	<g>
		<g>
			<path fill="#C8C5BE" d="M38.8,183.4c4.2-1.3,8.4-2.6,12.6-4c1.8-0.6,1.1-3.5-0.8-2.9c-4.2,1.3-8.4,2.6-12.6,4
				C36.2,181.1,37,184,38.8,183.4L38.8,183.4z"/>
		</g>
	</g>
	<g>
		<g>
			<path fill="#C8C5BE" d="M63.5,176c4.2-1.3,8.4-2.6,12.6-4c1.8-0.6,1.1-3.5-0.8-2.9c-4.2,1.3-8.4,2.6-12.6,4
				C60.8,173.7,61.6,176.6,63.5,176L63.5,176z"/>
		</g>
	</g>
	<g>
		<g>
			<path fill="#C8C5BE" d="M88.1,168.7c4.2-1.3,8.4-2.6,12.6-4c1.8-0.6,1.1-3.5-0.8-2.9c-4.2,1.3-8.4,2.6-12.6,4
				C85.5,166.3,86.3,169.2,88.1,168.7L88.1,168.7z"/>
		</g>
	</g>
	<g>
		<g>
			<path fill="#C8C5BE" d="M112.8,161.3c4.2-1.3,8.4-2.6,12.6-4c1.8-0.6,1.1-3.5-0.8-2.9c-4.2,1.3-8.4,2.6-12.6,4
				C110.1,159,110.9,161.9,112.8,161.3L112.8,161.3z"/>
		</g>
	</g>
	<g>
		<g>
			<path fill="#C8C5BE" d="M137.4,153.9c4.2-1.3,8.4-2.6,12.6-4c1.8-0.6,1.1-3.5-0.8-2.9c-4.2,1.3-8.4,2.6-12.6,4
				C134.8,151.6,135.6,154.5,137.4,153.9L137.4,153.9z"/>
		</g>
	</g>
	<g>
		<g>
			<path fill="#C8C5BE" d="M162.1,146.6c4.2-1.3,8.4-2.6,12.6-4c1.8-0.6,1.1-3.5-0.8-2.9c-4.2,1.3-8.4,2.6-12.6,4
				C159.4,144.2,160.2,147.1,162.1,146.6L162.1,146.6z"/>
		</g>
	</g>
</g>
<g>
	<g>
		<g>
			<path fill="#C8C5BE" d="M14.2,190.8c4.3-0.6,8.7-1.3,13-1.9c1.9-0.3,1.1-3.2-0.8-2.9c-4.3,0.6-8.7,1.3-13,1.9
				C11.5,188.1,12.3,191,14.2,190.8L14.2,190.8z"/>
		</g>
	</g>
	<g>
		<g>
			<path fill="#C8C5BE" d="M43.2,186.6c4.3-0.6,8.7-1.3,13-1.9c1.9-0.3,1.1-3.2-0.8-2.9c-4.3,0.6-8.7,1.3-13,1.9
				C40.5,184,41.3,186.9,43.2,186.6L43.2,186.6z"/>
		</g>
	</g>
	<g>
		<g>
			<path fill="#C8C5BE" d="M72.2,182.5c4.3-0.6,8.7-1.3,13-1.9c1.9-0.3,1.1-3.2-0.8-2.9c-4.3,0.6-8.7,1.3-13,1.9
				C69.5,179.9,70.4,182.8,72.2,182.5L72.2,182.5z"/>
		</g>
	</g>
	<g>
		<g>
			<path fill="#C8C5BE" d="M101.3,178.4c4.3-0.6,8.7-1.3,13-1.9c1.9-0.3,1.1-3.2-0.8-2.9c-4.3,0.6-8.7,1.3-13,1.9
				C98.6,175.8,99.4,178.7,101.3,178.4L101.3,178.4z"/>
		</g>
	</g>
	<g>
		<g>
			<path fill="#C8C5BE" d="M130.3,174.3c4.3-0.6,8.7-1.3,13-1.9c1.9-0.3,1.1-3.2-0.8-2.9c-4.3,0.6-8.7,1.3-13,1.9
				C127.6,171.7,128.4,174.6,130.3,174.3L130.3,174.3z"/>
		</g>
	</g>
	<g>
		<g>
			<path fill="#C8C5BE" d="M159.4,170.2c4.3-0.6,8.7-1.3,13-1.9c1.9-0.3,1.1-3.2-0.8-2.9c-4.3,0.6-8.7,1.3-13,1.9
				C156.7,167.5,157.5,170.4,159.4,170.2L159.4,170.2z"/>
		</g>
	</g>
	<g>
		<g>
			<path fill="#C8C5BE" d="M188.4,166c4.3-0.6,8.7-1.3,13-1.9c1.9-0.3,1.1-3.2-0.8-2.9c-4.3,0.6-8.7,1.3-13,1.9
				C185.7,163.4,186.5,166.3,188.4,166L188.4,166z"/>
		</g>
	</g>
</g>
<g>
	<g>
		<g>
			<path fill="#C8C5BE" d="M471.5,187.9c-4.3-0.6-8.7-1.3-13-1.9c-1.9-0.3-2.7,2.6-0.8,2.9c4.3,0.6,8.7,1.3,13,1.9
				C472.6,191,473.4,188.1,471.5,187.9L471.5,187.9z"/>
		</g>
	</g>
	<g>
		<g>
			<path fill="#C8C5BE" d="M442.4,183.7c-4.3-0.6-8.7-1.3-13-1.9c-1.9-0.3-2.7,2.6-0.8,2.9c4.3,0.6,8.7,1.3,13,1.9
				C443.5,186.9,444.3,184,442.4,183.7L442.4,183.7z"/>
		</g>
	</g>
	<g>
		<g>
			<path fill="#C8C5BE" d="M413.4,179.6c-4.3-0.6-8.7-1.3-13-1.9c-1.9-0.3-2.7,2.6-0.8,2.9c4.3,0.6,8.7,1.3,13,1.9
				C414.5,182.8,415.3,179.9,413.4,179.6L413.4,179.6z"/>
		</g>
	</g>
	<g>
		<g>
			<path fill="#C8C5BE" d="M384.3,175.5c-4.3-0.6-8.7-1.3-13-1.9c-1.9-0.3-2.7,2.6-0.8,2.9c4.3,0.6,8.7,1.3,13,1.9
				C385.4,178.7,386.2,175.8,384.3,175.5L384.3,175.5z"/>
		</g>
	</g>
	<g>
		<g>
			<path fill="#C8C5BE" d="M355.3,171.4c-4.3-0.6-8.7-1.3-13-1.9c-1.9-0.3-2.7,2.6-0.8,2.9c4.3,0.6,8.7,1.3,13,1.9
				C356.4,174.6,357.2,171.7,355.3,171.4L355.3,171.4z"/>
		</g>
	</g>
	<g>
		<g>
			<path fill="#C8C5BE" d="M326.3,167.3c-4.3-0.6-8.7-1.3-13-1.9c-1.9-0.3-2.7,2.6-0.8,2.9c4.3,0.6,8.7,1.3,13,1.9
				C327.3,170.4,328.2,167.5,326.3,167.3L326.3,167.3z"/>
		</g>
	</g>
	<g>
		<g>
			<path fill="#C8C5BE" d="M297.2,163.1c-4.3-0.6-8.7-1.3-13-1.9c-1.9-0.3-2.7,2.6-0.8,2.9c4.3,0.6,8.7,1.3,13,1.9
				C298.3,166.3,299.1,163.4,297.2,163.1L297.2,163.1z"/>
		</g>
	</g>
</g>
<g>
	<g>
		<g>
			<path fill="#C8C5BE" d="M14.5,190.6c3.8-2.1,7.7-4.3,11.5-6.4c1.7-0.9,0.2-3.5-1.5-2.6c-3.8,2.1-7.7,4.3-11.5,6.4
				C11.3,188.9,12.9,191.5,14.5,190.6L14.5,190.6z"/>
		</g>
	</g>
	<g>
		<g>
			<path fill="#C8C5BE" d="M39.3,177.4c3.8-2.1,7.7-4.3,11.5-6.4c1.7-0.9,0.2-3.5-1.5-2.6c-3.8,2.1-7.7,4.3-11.5,6.4
				C36.1,175.7,37.6,178.3,39.3,177.4L39.3,177.4z"/>
		</g>
	</g>
	<g>
		<g>
			<path fill="#C8C5BE" d="M64,164.2c3.8-2.1,7.7-4.3,11.5-6.4c1.7-0.9,0.2-3.5-1.5-2.6c-3.8,2.1-7.7,4.3-11.5,6.4
				C60.8,162.5,62.3,165.1,64,164.2L64,164.2z"/>
		</g>
	</g>
	<g>
		<g>
			<path fill="#C8C5BE" d="M88.7,150.9c3.8-2.1,7.7-4.3,11.5-6.4c1.7-0.9,0.2-3.5-1.5-2.6c-3.8,2.1-7.7,4.3-11.5,6.4
				C85.5,149.3,87,151.9,88.7,150.9L88.7,150.9z"/>
		</g>
	</g>
	<g>
		<g>
			<path fill="#C8C5BE" d="M113.4,137.7c3.8-2.1,7.7-4.3,11.5-6.4c1.7-0.9,0.2-3.5-1.5-2.6c-3.8,2.1-7.7,4.3-11.5,6.4
				C110.2,136.1,111.7,138.6,113.4,137.7L113.4,137.7z"/>
		</g>
	</g>
	<g>
		<g>
			<path fill="#C8C5BE" d="M138.2,124.5c3.8-2.1,7.7-4.3,11.5-6.4c1.7-0.9,0.2-3.5-1.5-2.6c-3.8,2.1-7.7,4.3-11.5,6.4
				C135,122.8,136.5,125.4,138.2,124.5L138.2,124.5z"/>
		</g>
	</g>
	<g>
		<g>
			<path fill="#C8C5BE" d="M162.9,111.3c3.8-2.1,7.7-4.3,11.5-6.4c1.7-0.9,0.2-3.5-1.5-2.6c-3.8,2.1-7.7,4.3-11.5,6.4
				C159.7,109.6,161.2,112.2,162.9,111.3L162.9,111.3z"/>
		</g>
	</g>
	<g>
		<g>
			<path fill="#C8C5BE" d="M187.6,98c3.8-2.1,7.7-4.3,11.5-6.4c1.7-0.9,0.2-3.5-1.5-2.6c-3.8,2.1-7.7,4.3-11.5,6.4
				C184.4,96.4,185.9,99,187.6,98L187.6,98z"/>
		</g>
	</g>
</g>
<g>
	<g>
		<g>
			<g>
				<path fill="#FFFFFF" d="M311.2,139.9c-1.9-4-3.8-8-5.6-11.9c-0.8-1.7-3.4-0.2-2.6,1.5c1.9,4,3.8,8,5.6,11.9
					C309.4,143.2,312,141.6,311.2,139.9L311.2,139.9z"/>
			</g>
		</g>
		<g>
			<g>
				<path fill="#FFFFFF" d="M300.9,118.9c-1.9-4-3.8-7.9-5.7-11.9c-0.8-1.7-3.4-0.2-2.6,1.5c1.9,4,3.8,7.9,5.7,11.9
					C299.1,122.2,301.7,120.7,300.9,118.9L300.9,118.9z"/>
			</g>
		</g>
		<g>
			<g>
				<path fill="#FFFFFF" d="M290.6,98c-1.9-4-3.8-7.9-5.7-11.9c-0.8-1.7-3.4-0.2-2.6,1.5c1.9,4,3.8,7.9,5.7,11.9
					C288.8,101.2,291.4,99.7,290.6,98L290.6,98z"/>
			</g>
		</g>
		<g>
			<g>
				<path fill="#FFFFFF" d="M280.3,77c-1.9-4-3.9-7.9-5.8-11.9c-0.8-1.7-3.4-0.2-2.6,1.5c1.9,4,3.9,7.9,5.8,11.9
					C278.5,80.3,281.1,78.7,280.3,77L280.3,77z"/>
			</g>
		</g>
		<g>
			<g>
				<path fill="#FFFFFF" d="M269.9,56.1c-1.9-3.9-3.9-7.9-5.8-11.8c-0.9-1.7-3.4-0.2-2.6,1.5c1.9,3.9,3.9,7.9,5.8,11.8
					C268.2,59.3,270.8,57.8,269.9,56.1L269.9,56.1z"/>
			</g>
		</g>
		<g>
			<g>
				<path fill="#FFFFFF" d="M259.6,35.1c-2-3.9-3.9-7.9-5.9-11.8c-0.9-1.7-3.5-0.2-2.6,1.5c2,3.9,3.9,7.9,5.9,11.8
					C257.9,38.3,260.5,36.8,259.6,35.1L259.6,35.1z"/>
			</g>
		</g>
		<g>
			<g>
				<path fill="#FFFFFF" d="M249.3,14.1c-2-3.9-4-7.8-5.9-11.8c-0.9-1.7-3.5-0.2-2.6,1.5c2,3.9,4,7.8,5.9,11.8
					C247.6,17.4,250.2,15.9,249.3,14.1L249.3,14.1z"/>
			</g>
		</g>
	</g>
	<g>
		<g>
			<g>
				<path fill="#FFFFFF" d="M172.7,142.2c3.4,2.7,6.9,5.5,10.3,8.2c1.5,1.2,3.6-0.9,2.1-2.1c-3.4-2.7-6.9-5.5-10.3-8.2
					C173.3,138.8,171.1,141,172.7,142.2L172.7,142.2z"/>
			</g>
		</g>
		<g>
			<g>
				<path fill="#FFFFFF" d="M190.1,155.5c3.4,2.8,6.8,5.5,10.2,8.3c1.5,1.2,3.6-0.9,2.1-2.1c-3.4-2.8-6.8-5.5-10.2-8.3
					C190.7,152.2,188.6,154.3,190.1,155.5L190.1,155.5z"/>
			</g>
		</g>
		<g>
			<g>
				<path fill="#FFFFFF" d="M207.5,168.8c3.4,2.8,6.8,5.6,10.2,8.4c1.5,1.2,3.6-0.9,2.1-2.1c-3.4-2.8-6.8-5.6-10.2-8.4
					C208.1,165.5,206,167.6,207.5,168.8L207.5,168.8z"/>
			</g>
		</g>
		<g>
			<g>
				<path fill="#FFFFFF" d="M224.9,182.1c3.4,2.8,6.7,5.7,10.1,8.5c1.5,1.2,3.6-0.9,2.1-2.1c-3.4-2.8-6.7-5.7-10.1-8.5
					C225.6,178.8,223.4,180.9,224.9,182.1L224.9,182.1z"/>
			</g>
		</g>
	</g>
	<g>
		<g>
			<g>
				<path fill="#FFFFFF" d="M309,140c-3.4,2.7-6.9,5.5-10.3,8.2c-1.5,1.2,0.6,3.3,2.1,2.1c3.4-2.7,6.9-5.5,10.3-8.2
					C312.6,141,310.5,138.8,309,140L309,140z"/>
			</g>
		</g>
		<g>
			<g>
				<path fill="#FFFFFF" d="M291.6,153.4c-3.4,2.8-6.8,5.5-10.2,8.3c-1.5,1.2,0.6,3.3,2.1,2.1c3.4-2.8,6.8-5.5,10.2-8.3
					C295.2,154.3,293.1,152.2,291.6,153.4L291.6,153.4z"/>
			</g>
		</g>
		<g>
			<g>
				<path fill="#FFFFFF" d="M274.2,166.7c-3.4,2.8-6.8,5.6-10.2,8.4c-1.5,1.2,0.6,3.3,2.1,2.1c3.4-2.8,6.8-5.6,10.2-8.4
					C277.8,167.6,275.7,165.5,274.2,166.7L274.2,166.7z"/>
			</g>
		</g>
		<g>
			<g>
				<path fill="#FFFFFF" d="M256.8,180c-3.4,2.8-6.7,5.7-10.1,8.5c-1.5,1.2,0.7,3.4,2.1,2.1c3.4-2.8,6.7-5.7,10.1-8.5
					C260.4,180.9,258.2,178.8,256.8,180L256.8,180z"/>
			</g>
		</g>
	</g>
	<g>
		<g>
			<g>
				<path fill="#FFFFFF" d="M175.4,141.4c1.9-4,3.8-8,5.6-11.9c0.8-1.7-1.8-3.3-2.6-1.5c-1.9,4-3.8,8-5.6,11.9
					C172,141.6,174.6,143.2,175.4,141.4L175.4,141.4z"/>
			</g>
		</g>
		<g>
			<g>
				<path fill="#FFFFFF" d="M185.7,120.5c1.9-4,3.8-7.9,5.7-11.9c0.8-1.7-1.8-3.3-2.6-1.5c-1.9,4-3.8,7.9-5.7,11.9
					C182.3,120.7,184.9,122.2,185.7,120.5L185.7,120.5z"/>
			</g>
		</g>
		<g>
			<g>
				<path fill="#FFFFFF" d="M196,99.5c1.9-4,3.8-7.9,5.7-11.9c0.8-1.7-1.8-3.3-2.6-1.5c-1.9,4-3.8,7.9-5.7,11.9
					C192.6,99.7,195.2,101.2,196,99.5L196,99.5z"/>
			</g>
		</g>
		<g>
			<g>
				<path fill="#FFFFFF" d="M206.3,78.5c1.9-4,3.9-7.9,5.8-11.9c0.8-1.7-1.7-3.3-2.6-1.5c-1.9,4-3.9,7.9-5.8,11.9
					C202.9,78.7,205.5,80.3,206.3,78.5L206.3,78.5z"/>
			</g>
		</g>
		<g>
			<g>
				<path fill="#FFFFFF" d="M216.6,57.6c1.9-3.9,3.9-7.9,5.8-11.8c0.9-1.7-1.7-3.2-2.6-1.5c-1.9,3.9-3.9,7.9-5.8,11.8
					C213.2,57.8,215.8,59.3,216.6,57.6L216.6,57.6z"/>
			</g>
		</g>
		<g>
			<g>
				<path fill="#FFFFFF" d="M226.9,36.6c2-3.9,3.9-7.9,5.9-11.8c0.9-1.7-1.7-3.2-2.6-1.5c-2,3.9-3.9,7.9-5.9,11.8
					C223.5,36.8,226.1,38.3,226.9,36.6L226.9,36.6z"/>
			</g>
		</g>
		<g>
			<g>
				<path fill="#FFFFFF" d="M237.2,15.6c2-3.9,4-7.8,5.9-11.8c0.9-1.7-1.7-3.2-2.6-1.5c-2,3.9-4,7.8-5.9,11.8
					C233.8,15.9,236.4,17.4,237.2,15.6L237.2,15.6z"/>
			</g>
		</g>
	</g>
	<g>
		<g>
			<g>
				<path fill="#FFFFFF" d="M217.6,138.5c-1.5-4.1-3-8.3-4.4-12.4c-0.6-1.8-3.5-1-2.9,0.8c1.5,4.1,3,8.3,4.4,12.4
					C215.4,141.1,218.3,140.4,217.6,138.5L217.6,138.5z"/>
			</g>
		</g>
		<g>
			<g>
				<path fill="#FFFFFF" d="M211.3,120.2c-1.5-4.1-3-8.3-4.4-12.4c-0.6-1.8-3.5-1-2.9,0.8c1.5,4.1,3,8.3,4.4,12.4
					C209,122.8,211.9,122,211.3,120.2L211.3,120.2z"/>
			</g>
		</g>
		<g>
			<g>
				<path fill="#FFFFFF" d="M204.9,101.9c-1.5-4.1-3-8.3-4.4-12.4c-0.6-1.8-3.5-1-2.9,0.8c1.5,4.1,3,8.3,4.4,12.4
					C202.7,104.5,205.6,103.7,204.9,101.9L204.9,101.9z"/>
			</g>
		</g>
	</g>
	<g>
		<g>
			<g>
				<path fill="#FFFFFF" d="M269.5,139.3c1.5-4.1,3-8.3,4.4-12.4c0.6-1.8-2.2-2.6-2.9-0.8c-1.5,4.1-3,8.3-4.4,12.4
					C266,140.3,268.9,141.1,269.5,139.3L269.5,139.3z"/>
			</g>
		</g>
		<g>
			<g>
				<path fill="#FFFFFF" d="M275.9,121c1.5-4.1,3-8.3,4.4-12.4c0.6-1.8-2.2-2.6-2.9-0.8c-1.5,4.1-3,8.3-4.4,12.4
					C272.3,122,275.2,122.8,275.9,121L275.9,121z"/>
			</g>
		</g>
		<g>
			<g>
				<path fill="#FFFFFF" d="M282.2,102.7c1.5-4.1,3-8.3,4.4-12.4c0.6-1.8-2.2-2.6-2.9-0.8c-1.5,4.1-3,8.3-4.4,12.4
					C278.6,103.7,281.5,104.5,282.2,102.7L282.2,102.7z"/>
			</g>
		</g>
	</g>
	<g>
		<g>
			<g>
				<path fill="#FFFFFF" d="M216.6,140.9c4.4,0,8.8,0.1,13.2,0.1c1.9,0,1.9-3,0-3c-4.4,0-8.8-0.1-13.2-0.1
					C214.7,137.9,214.7,140.9,216.6,140.9L216.6,140.9z"/>
			</g>
		</g>
		<g>
			<g>
				<path fill="#FFFFFF" d="M236,140.8c4.4,0,8.8,0.1,13.2,0.1c1.9,0,1.9-3,0-3c-4.4,0-8.8-0.1-13.2-0.1
					C234.1,137.8,234.1,140.8,236,140.8L236,140.8z"/>
			</g>
		</g>
		<g>
			<g>
				<path fill="#FFFFFF" d="M255.4,140.8c4.4,0,8.8,0.1,13.2,0.1c1.9,0,1.9-3,0-3c-4.4,0-8.8-0.1-13.2-0.1
					C253.5,137.8,253.5,140.8,255.4,140.8L255.4,140.8z"/>
			</g>
		</g>
	</g>
	<g>
		<g>
			<path fill="#FFFFFF" d="M206.8,156.7c2.5-3.6,4.9-7.3,7.4-10.9c1.1-1.6-1.5-3.1-2.6-1.5c-2.5,3.6-4.9,7.3-7.4,10.9
				C203.1,156.7,205.7,158.2,206.8,156.7L206.8,156.7z"/>
		</g>
	</g>
	<g>
		<g>
			<path fill="#FFFFFF" d="M280.2,155.1c-2.5-3.6-4.9-7.3-7.4-10.9c-1.1-1.6-3.7-0.1-2.6,1.5c2.5,3.6,4.9,7.3,7.4,10.9
				C278.7,158.2,281.3,156.7,280.2,155.1L280.2,155.1z"/>
		</g>
	</g>
</g>
</svg>
