<?xml version="1.0" encoding="utf-8"?>
<!-- Generator: Adobe Illustrator 18.1.1, SVG Export Plug-In . SVG Version: 6.00 Build 0)  -->
<!DOCTYPE svg PUBLIC "-//W3C//DTD SVG 1.1//EN" "http://www.w3.org/Graphics/SVG/1.1/DTD/svg11.dtd">
<svg version="1.1" id="Layer_1" xmlns="http://www.w3.org/2000/svg" xmlns:xlink="http://www.w3.org/1999/xlink" x="0px" y="0px"
	 width="360px" height="200px" viewBox="0 0 360 200" enable-background="new 0 0 360 200" xml:space="preserve">
<g>
	<g>
		<path fill="#C8C5BE" d="M321.6,21.5c-0.3-0.4-0.5-0.6,0-1.1c0.5-0.5,0-2.2-0.6-2.4c-1.7-0.8-2.2-0.7-3.5,0.6
			c0.4,0.5,0.7,0.9,1.1,1.4c-0.1,0.1-0.1,0.2-0.2,0.2c-0.4-0.3-0.9-0.6-1.1-0.9c-0.7-1-1.6-1.5-2.9-1.5c-1.4,0-2.9,0.1-4.1-0.4
			c-3.1-1.3-6-0.4-9.1,0.3c0.3,0.5,0.5,1,0.8,1.4c0.3,0.4,0.8,0.6,1.2,1c0.5,0.5,0.4,1-0.3,1.2c-0.5,0.2-2.3-1.3-2.4-1.8
			c-0.1-0.3-0.3-0.6-0.5-0.9c-0.2,0.3-0.6,0.5-0.6,0.8c0,0.7-0.2,1.1-1,1.1c-0.5,0-0.9,0.2-1.4,0.3c-1.1,0.1-1.9,0.6-1.9,1.9
			c-0.3-0.3-0.6-0.6-0.8-0.6c-1.3,0.3-1.6-0.5-2.2-1.4c-0.7-1.3-2.1-1.7-3.5-1.1c-0.8,0.4-1.6,0.8-2.3,1.2c-0.6,0.3-1,0.7-1.5-0.1
			c-0.3-0.4-0.8-0.7-1.6-0.4c-0.4,0.2-1.7-0.6-1.7-0.8c0.2-1.2-0.6-1.1-1.2-1.1c-0.7,0.1-1.3,0.6-2,0.7c-1.7,0.1-3.4,0-5.1,0.1
			c-0.1,0-0.1,0.1-0.3,0.2c0.3,0.2,0.5,0.4,0.5,0.4c-0.2,0.6-0.5,1.2-0.3,1.5c0.4,0.6,1,1,1.7,1.7c-1.4,0.3-2.9,0.1-3.5,0.8
			c-1,1-1.7,0.8-2.9,0.2c0.2,0.7,0.4,1.1,0.5,1.6c0.1,0.3,0,0.7,0.1,1c-0.4-0.1-0.8,0-1.1-0.2c-0.9-0.5-1.8-1-2.7-1.5
			c-0.1,0-0.1-0.1-0.2-0.2c0.3-0.1,0.6-0.2,0.9-0.3c-0.7-0.8-1.3-1.6-2-2.3c-1.3-1.2-2.9-0.6-4.3-0.6c-0.1,0-0.4,0.6-0.4,0.9
			c0,0.3,0.3,0.6,0.5,0.9c-0.3,0.1-0.5,0.1-0.7,0.2c-1.4,0.6-2.7,1.2-3.8-0.5c-0.1-0.1-0.4-0.1-0.6-0.1c-0.8,0.2-1.5,0.4-2.3,0.5
			c-1,0.2-2,1.1-3.2,0.2c-0.2-0.1-0.7,0.2-1,0.3c0.2,0.3,0.4,0.6,0.7,0.9c-0.7,0.8-1.5,1.6-2.2,2.4c0-0.2-0.1-0.5,0-0.8
			c0.4-1.5,0.9-3,1.4-4.5c0.2-0.8,0.5-1.8,0.4-2.6c-0.1-0.7-0.7-1.5-1.3-2c-0.7-0.5-1.6-0.8-2.5-1.1c-0.4-0.1-0.8,0-1.3,0
			c-1.1,0-1.1,1.1-1.7,2c-0.2-1-0.4-1.6-0.5-2.2c-0.7,0.1-1.3,0.2-2.1,0.3c0.6-1.1,0-1.3-0.7-1.5c-0.8-0.2-1.1,0.1-1.4,0.8
			c-0.5,1.6-0.1,2.8,1.1,3.6c-0.5,0.2-1.3,0.3-1.5,0.7c-0.5,1-0.5,1.3-1.2,1.4c-0.1,0-0.5,0-0.5-0.1c-0.2-1.1-0.5-0.5-0.9-0.1
			c-0.4,0.3-1.3,0.6-1.2,0.7c0.4,1.1-0.6,1-1,1.4c-0.5,0.4-0.9,0.8-1.3,1.3c-0.4,0.6-0.7,1.3-1.2,2.3c0.7,0.5,1.5,1.1,2.4,1.7
			c-0.4,0.2-0.8,0-1,0.1c-1.1,0.4-2.1,0.8-3.2,1.3c-0.2,0.1-0.5,0.4-0.5,0.5c0.4,0.8,0.6,1.8,1.3,2.4c0.6,0.6,1.6,0.7,2.4,1.1
			c0,0.1-0.1,0.3-0.1,0.4c-0.6-0.1-1.2-0.1-1.8-0.2c-0.4-0.1-0.7-0.5-1.1-0.6c-0.5-0.1-1.1-0.1-1.6-0.1c0.2,0.4,0.3,0.8,0.5,1.3
			c-0.6-0.1-1.1-0.1-1.7-0.2c0.3,1.4,1.6,1.4,2.5,1.7c-2.5,0.7-3-1.1-3.5-3c-0.2,1-0.5,1.6-0.5,2.2c0,0.4,0,1.1,0.3,1.3
			c1,0.8,1.2,1.8,1.4,3c0.2,1.3,0.7,1.4,1.9,1c0.3-0.1,0.7,0,1.2,0c-0.6,0.4-1,0.6-1.3,0.9c-0.2,0.2-0.3,0.8-0.2,0.9
			c1.1,1.1,0.5,2.3,0.1,3.3c-0.6,1.4-0.9,1.4-2.5,0.8c0.4-0.1,0.8,0,1-0.2c0.7-0.6,1-3.6,0.3-4.2c-1.2-0.9-1.3-2.3-1.8-3.5
			c-0.2-0.4-0.2-1-0.6-1.3c-0.9-0.7-0.9-1.6-1-2.6c-0.2-1.5-0.4-1.7-1.9-1.6c-0.4,0-0.8,0.1-1.2,0.2c-0.1,1.5,0.1,2.8-0.3,4.3
			c-0.3,1,0.8,2.4,1.2,3.5c0,0.1,0.4,0,0.5,0.1c0.4,0.7,1.9,0.8,1.5,2c-1.7-0.7-3.3-1.7-5-2.1c-1.4-0.3-3-0.1-4.2-1.3
			c0.1,1.8,2.4,1.6,2.6,3.2c-0.3,0.3-0.5,0.6-0.9,1c-0.2-0.3-0.4-0.7-0.6-1c-1.3,0.6-2.6,1.2-3.9,1.8c-0.1-0.5-0.2-0.9-0.3-1.3
			c-0.5,0.4-1,0.7-1.4,0.9c-1.3,0.7-2.4,1.5-2.9,2.9c-0.1,0.3-0.8,0.4-1.3,0.4c-0.3,0-0.7-0.5-0.7-0.7c0.1-0.4,0.4-0.8,0.9-1.5
			c-0.8-0.3-1.5-0.6-2.5-0.9c0.5,1.8,0.8,3.1,1.2,4.6c-0.4-0.1-0.6-0.1-0.8-0.1c-1.1-0.5-1.6,0.5-2.2,1c-0.6,0.5-0.6,1,0,1.6
			c0.1,0.1,0,0.5-0.1,0.7c-0.1,0.1-0.5,0.1-0.7,0c-0.7-0.3-1.4-0.6-2-0.9c-0.5,1-0.1,1.3,0.6,1.6c0.2,0.1,0.3,0.4,0.5,0.6
			c-0.3,0.1-0.6,0.3-0.8,0.2c-0.6-0.4-1.5-0.7-1.7-1.3c-0.6-1.2-0.9-2.6-2.3-3.6c1.5,0.3,2.7,0.7,3.9,0.9c1.3,0.2,2.4-0.4,2.7-1.4
			c0.4-1.3-0.6-1.8-1.4-2.3c-0.7-0.5-1.4-0.8-2.2-1.2c-0.7-0.3-1.4-0.7-2.1-0.9c-0.7-0.2-1.9,0-2.1-0.4c-0.7-1.2-1.4,0.3-2-0.3
			c-0.2-0.2-0.5-0.2-0.8-0.3c0.5-0.3,0.9-0.6,1.3-0.8c0-0.1-0.1-0.2-0.1-0.3c-0.8,0-1.4-1.2-2.3,0c-0.1-0.4-0.2-0.7-0.3-1.1
			c-0.2,0.2-0.5,0.5-0.7,0.7c-0.1,0.1-0.4,0.3-0.4,0.3c-0.3-0.2-0.6-0.5-1-0.8c-1,0.2-1.4,1.9-2.9,1.7c-0.1,0-0.2,0.1-0.2,0.2
			c0,0.2,0.1,0.4,0.1,0.6c-0.3,0.1-0.7,0.1-1,0.2c-0.4,0.2-0.8,0.4-1.2,0.6c-0.3,0.1-0.7,0.1-1.1,0.2c0.1,0.4,0.3,0.7,0.3,1.1
			c0,0.1-0.2,0.2-0.3,0.3c-0.8,1.3-2,2.5-2.4,3.9c-0.6,1.8-1.3,3.5-2.6,4.9c-0.6,0.7-1.1,1.5-2.1,1.8c-1.4,0.5-2.5,2.4-1.9,3.4
			c0.7,1.1,0.3,2.1,0.4,3.2c0,0.2,0.2,0.5,0.3,0.6c0.9,0.8,1.8,0.8,2.7-0.1c0.5-0.5,1.1-0.9,1.6-1.3c0.7,1.9,1.3,3.5,1.9,5.1
			c0.3,0.7,0.6,0.9,1.3,0.4c0.3-0.3,0.6-0.6,1-0.6c0.9-0.1,1.1-0.6,1-1.5c-0.1-1.1-0.2-2.3,1.1-3.1c0.8-0.5,0.7-1.6-0.2-2.2
			c-0.8-0.5-0.8-1.1-0.8-2c0-1.3,0.6-2.2,1.6-2.9c0.9-0.7,1.6-1.4,1.4-2.7c0-0.2,0-0.6,0.1-0.7c0.4-0.3,0.9-0.7,1.4-0.7
			c0.5,0,1.1,0.4,1.6,0.6c-0.2,0.4-0.4,0.8-0.6,1.2c-0.2,0.3-0.3,0.6-0.5,0.8c-1.7,1.4-2,3.2-1.4,5.3c0.1,0.2,0.1,0.7,0.2,0.7
			c1.1,0.1,1.8,1.5,3.2,0.6c1.1-0.7,2.6-1,3.8,0.1c-0.8,0.8-1.5,1.4-2.6,1c-0.3-0.1-0.8,0-1.2,0.1c-1.3,0.4-1.5,1-0.6,2
			c0.6,0.7,0.4,1.2,0.1,2c-0.2-0.1-0.4-0.2-0.5-0.3c-1-1-1.3-1-1.8,0.3c-0.2,0.4-0.3,1-0.2,1.3c0.5,1.1-0.2,1.4-0.8,2
			c-0.7,0.7-1,0.2-1.5-0.2c-0.2-0.2-0.8,0-1.2,0.2c-0.8,0.4-1.5,0.9-2.3,1.4c-0.1,0-0.2,0-0.4,0c-0.2-0.3-0.5-0.7-0.7-1
			c-0.5,0.2-1,0.5-1.5,0.5c-0.5,0-1.2-0.3-1.6-0.6c-0.3-0.2-0.4-1.1-0.2-1.2c1.1-1,0.2-2,0.4-3.1c-2,1.3-2.1,1.8-1.5,3.9
			c0.5,1.5,0.4,1.4-1,1.9c-1,0.4-2.5,0.2-2.7,1.7c-0.1,0.8-0.5,1.2-1.2,1.6c-0.4,0.2-0.6,0.6-0.9,1c-0.6,0.9-1.9,1.5-3.2,1.1
			c0.3,0.9,0.1,1.4-0.9,1.1c-0.2-0.1-0.5-0.1-0.8,0c-0.3,0.1-0.6,0.3-0.8,0.5c0.2,0.3,0.4,0.7,0.6,0.7c1.3,0.1,1.8,1.2,2.2,2
			c0.4,0.9,0,2.1-0.1,3.2c0,0.1-0.5,0.3-0.8,0.3c-1,0-2-0.2-2.9-0.2c-1.2-0.1-2.5-0.5-3.4,0.7c0.3,1.5,0.5,2.9-0.2,4.3
			c-0.1,0.3-0.2,0.7-0.1,1c0.1,0.6,0.4,1.2,0.7,1.9c0.4,0,1.3-0.1,1.6,0.2c0.9,1.3,1.7,0.9,2.8,0.4c0.3-0.2,0.8,0,1.2-0.1
			c1-0.1,3-1.8,2.7-2.5c-0.6-1.6,0.6-2.1,1.4-2.7c0.8-0.5,1.2-1,1.3-1.9c0.1-0.8,0.5-1.5,1.4-1c1.3,0.7,2.2-0.1,3.1-0.7
			c1.2-0.7,1.4-0.6,2.2,0.5c0.8,1,1.7,1.9,2.7,2.8c0.7,0.6,1.7,1,2.4,1.6c0.4,0.3,0.6,1.1,0.6,1.6c0,0.3-0.7,0.6-1.2,0.7
			c-0.7,0.2-1.4,0.2-2,0.3c0,0.1,0,0.2-0.1,0.3c0.8,0.4,1.6,0.8,2.5,1.3c0.2-0.8-0.1-1.6,1-1.7c0.3,0,0.6-1.1,0.7-1.7
			c0.1-0.3-0.1-0.7-0.1-1.1c0.4,0.1,0.9,0.1,1.3,0.2c-0.3-0.5-0.7-1-1.2-1.2c-1.9-0.9-3.2-2.4-4.5-3.9c-0.3-0.3-0.2-0.9-0.1-1.4
			c0-0.1,0.4-0.2,0.7-0.3c0.2,1,1.4,0.5,1.6,1.1c0.6,1.5,2.2,1.6,3.2,2.5c0.6,0.4,0.9,1.2,1.3,1.8c0.3,0.6,0.4,1.3,0.7,1.9
			c0.4,0.9,1,1.7,1.5,2.5c0.4,0.6,0.7,1.3,1.2,1.2c0.5-0.6,0.8-1,1.1-1.4c0.3-0.4,0.5-0.7,0-1.2c-0.5-0.5-0.9-1.2-1.2-1.6
			c0.6-0.3,1-0.4,1.2-0.6c0.6-0.6,1.9-0.8,2.2-0.2c0.3,0.7,0.9,1.6,0.7,2.1c-0.5,1.1,0.3,1.5,0.7,2.1c0.6,1,2.4,1.3,3.4,0.8
			c0.3-0.2,0.9-0.2,1.1,0c0.9,0.7,1.7,0.8,2.6,0c0.6-0.5,1.4-0.2,1.4,0.6c0,1.2-0.2,2.4-0.5,3.5c-0.7,2.2-0.8,2.2-3.1,1.8
			c-0.6-0.1-1.2,0.1-1.8,0.2c-0.4,0-0.7,0.3-1,0.2c-2-0.5-4-1-5.9-1.7c-1.6-0.6-2.8,0-2.9,1.8c0,0.8-0.3,1.3-1.1,1
			c-1-0.3-2-0.8-3-1.2c-0.1-0.1-0.3-0.2-0.3-0.3c-0.3-1.2-1.4-1.3-2.4-1.3c-1.2,0-2.1-0.6-3.2-1.3c0.8-0.7,0.7-1.5,0.6-2.4
			c-0.1-1.2-0.8-1.2-1.2-1.2c-1.8,0-3.7,0.1-5.5,0.4c-1.4,0.2-2.9,0.6-4.1,1.3c-1.7,1-3.3,0.5-4.6,0c-0.9,0.9-1.6,2-2.5,2.5
			c-1.1,0.7-1.7,1.7-1.7,2.7c0,1.8-1,2.6-2.4,3.3c-0.3,0.2-0.7,0.3-0.9,0.6c-1.3,1.9-2.7,3.8-3.9,5.7c-0.2,0.3-0.3,1-0.2,1.3
			c0.9,1.7,1,3.5,0.1,5.1c-0.7,1.3,0.1,2.3,0,3.5c0,0.2,0.3,0.6,0.5,0.8c1.4,1.2,3,2.3,3.5,4.2c0.1,0.3,0.3,0.6,0.6,0.7
			c1.2,0.9,2.5,1.7,3.7,2.5c0.6,0.4,1.1,0.4,1.9,0.1c1.2-0.4,2.5-0.6,3.7-0.4c1.2,0.2,2.1-0.1,3.1-0.5c1.1-0.4,2.2-0.7,3.3-0.9
			c0.5-0.1,1.2,0.4,1.5,0.8c1,1.5,1,1.5,2.8,1.2c1.3-0.2,2.1,0.4,2,1.7c0,0.4-0.1,0.8-0.3,1.2c-1,2.3-0.6,4.2,1.5,5.7
			c0.3,0.2,0.5,0.5,0.7,0.8c1.2,2.1,1.4,4.5,1.9,6.8c0.1,0.3-0.1,0.9-0.4,1.1c-1.4,1.1-1.5,2.8-1.7,4.4c-0.1,0.7,0.2,1.5,0.5,2.2
			c0.9,1.8,1.9,3.4,2.1,5.5c0.2,2,0.7,3.8,1.9,5.5c0.8,1.2,1.6,2.6,1.1,4.3c-0.3,1.1,1,2.3,2.1,2.2c1.6-0.2,3.1-0.4,4.7-0.7
			c2.4-0.4,4.2-1.7,5.6-3.7c0.5-0.7,0.9-1.4,1.6-1.9c1-0.8,1.4-1.8,1.3-2.9c-0.1-1,0.4-1.4,1.2-1.7c1.6-0.6,2-1.3,1.7-2.9
			c-0.1-0.6-0.3-1.1-0.4-1.7c0-0.4,0-0.9,0.3-1.1c1.3-1,2.5-2,3.9-2.8c1-0.6,1.7-1.3,1.9-2.3c0.2-1.4,0.1-2.9,0.1-4.3
			c0-0.1-0.1-0.3-0.2-0.4c-1.1-0.8-0.9-2-1-3.1c0-0.2,0.1-0.6,0-0.7c-0.8-0.8-0.3-1.5,0.1-2.1c1.5-2.4,3.3-4.6,5.6-6.2
			c3-2,4.5-4.9,6-7.8c0.4-0.8,0.4-1.9,0.6-2.9c-2.3,0.5-4.4,1-6.4,1.5c-0.3,0.1-0.8-0.1-1.1-0.3c-0.8-0.5-0.9-1.3-0.7-2.1
			c1,0.3,1.7-0.3,2.6-0.7c1.9-0.8,3.9-1.4,5.8-2.1c0.3-0.1,0.5-0.4,0.7-0.6c0.4-0.3,0.8-0.7,1.2-0.8c1.3-0.2,2.1-1.2,3-1.9
			c0.6-0.5,1.5-0.9,1.3-2c0-0.1,0.4-0.3,0.5-0.5c0.4-0.7,1.1-1.5,0.9-2c-0.2-0.7-0.8-1.6-1.9-1.5c-0.8,0-1.3-0.6-1.5-1.4
			c-0.1-0.4-0.1-0.8-0.2-1.4c-0.6,0.7-1.1,1.1-1.4,1.6c-0.7,1.2-1.8,0.7-2.8,0.9c-0.1,0-0.4-1.1-0.7-1.7c0-0.1-0.1-0.3-0.2-0.6
			c-0.3,0.4-0.4,0.7-0.6,0.9c-0.8-1.1-1.6-2.2-2.4-3.3c-0.1-0.1-0.2-0.3-0.2-0.4c0-0.5,0.1-0.9,0.1-1.4c0.5,0.1,1.1,0.1,1.6,0.3
			c0.2,0.1,0.3,0.4,0.4,0.6c0.8,1.5,2.3,2,3.6,2.7c0.4,0.2,1.2,0.1,1.6-0.1c0.9-0.5,1.3-0.2,1.7,0.6c0.1,0.3,0.5,0.6,0.9,0.7
			c2.4,0.5,4.8,0.7,7.3,0.3c1.1-0.2,1.6,0.2,2.3,1c0.7,0.8,1.8,1.2,2.7,1.8c0.1,0,0.1,0.1,0.2,0.2c-0.2,0.2-0.5,0.4-0.7,0.6
			c0.6,0.7,1.1,1.8,2.2,1.4c0.5-0.2,0.9-0.9,1.2-1.3c0.3,1.5,0.5,3.4,1.2,5.1c1.2,3.1,2.6,6.1,4,9.1c0.1,0.1,0.1,0.4,0.2,0.4
			c0.4,0.1,0.9,0.2,1.1,0c1.7-1.5,2.4-3.4,2.1-5.6c-0.1-0.8-0.4-1.6,0.4-2.3c2.2-1.8,4.5-3.6,5.9-6.2c0.2-0.3,0.6-0.5,0.9-0.6
			c1.1-0.2,2.2-0.4,3.4-0.6c0.4,0.6,0.7,1.7,1.5,2.2c0.9,0.6,1.1,1.7,1.8,2.4c0.2,0.2,0.2,0.8,0.3,1.2c0.1,0.4,0.1,0.8,0.1,1.3
			c0.5-0.1,1-0.2,1.5-0.3c0.4-0.1,0.7-0.4,1.1-0.7c0.2,0.3,0.5,0.6,0.7,1c0.4,1.1,0.9,2.1,1.1,3.2c0.2,0.8,0.1,1.6,0.1,2.4
			c0.1,0.9-0.2,2.1,0.3,2.7c1,1.2,1.8,2.5,2.1,4c0.3,1.7,2.1,3.1,3.6,3.1c-0.3-1.2-0.5-2.4-0.8-3.7c-0.1-0.3-0.3-0.5-0.6-0.7
			c-1.3-1-2.7-2-3.3-3.7c-0.2-0.5-0.6-1.1-0.5-1.6c0.1-1,0.5-2,0.7-2.9c0.6,0.3,1.3,0.6,1.8,1c0.7,0.5,1.1,1.4,1.9,1.8
			c1,0.5,1.5,1.1,1.3,2.2c1.2-0.8,2.3-1.6,3.4-2.3c0.8-0.6,1.1-1.5,0.9-2.5c-0.3-1.6-0.7-3.2-2.3-4.1c-0.5-0.3-0.9-1-1.3-1.5
			c-0.9-1.1-0.6-2.3,0.7-3.2c1.3-0.9,1.8-0.8,2.7,0.6c0,0.1,0.2,0,0.3,0.1c-0.1-0.1-0.1-0.2-0.2-0.3c1.2-0.7,2.3-1.7,3.6-2
			c1.7-0.4,3-1,4-2.4c1.3-1.7,1.7-3.7,2.5-5.6c0.1-0.3,0.3-0.9,0.2-1c-0.9-0.6-0.6-1.4-0.7-2.2c-0.2-1.7-1.4-2.9-2.5-3.9
			c-0.7-0.7-0.8-1.1-0.4-1.8c0.4-0.8,1-1.4,1.9-1.7c0.2-0.1,0.3-0.4,0.5-0.6c-0.2-0.1-0.4-0.4-0.6-0.3c-0.8,0.1-1.7-0.8-2.4,0.4
			c0,0.1-0.6,0-0.9-0.1c-0.3-0.2-0.6-0.5-0.9-0.7c-0.8-0.6-0.7-1,0.2-1.6c0.2-0.1,0.3-0.5,0.5-0.7c0.4-0.6,0.8-1.3,1.3-1.9
			c0.1-0.2,0.6-0.2,0.8-0.1c0.2,0.1,0.3,0.5,0.3,0.7c0,0.7-0.1,1.4-0.3,2.4c1.2-1.2,2.2-2.4,3.9-1.4c0,0.2-0.1,0.5-0.1,0.7
			c0.1,0.8-0.3,1.9,1.3,1.6c0.2,0,0.7,0.6,0.8,1c0.3,1.1,0.4,2.3,0.5,3.5c0.6-0.3,1-0.5,1.4-0.6c1.3-0.4,1.5-0.7,1.2-1.9
			c-0.4-1.6-1.4-2.8-2.6-3.8c-0.7-0.6-0.7-1-0.1-1.7c0.4-0.4,1.1-1.2,1-1.5c-0.7-1.8,0.9-2.4,1.5-3.6c1.3,0.8,1.8,0.7,2.5-0.5
			c0.7-1.3,1.5-2.7,1.8-4.1c0.4-2.2,1.4-4.4,0.6-6.7c-0.4-1.1-0.6-2.2-0.8-3.3c-0.3-1.7-0.8-3.3-2.5-4.1c-0.7-0.3-1.4-0.6-1.7,0.5
			c-0.1,0.3-0.2,0.6-0.7,0.2c-0.4-0.3-1.1-0.2-1.2-1c0-0.1-0.4-0.2-0.7-0.3c-0.3,0-0.6,0-0.9,0c-0.1-0.2-0.1-0.3-0.1-0.3
			c1.3-2.8,2.3-5.7,2.6-8.7c0-0.3,0.4-0.7,0.6-0.8c0.7-0.3,1.5-0.4,2.2-0.6c0.9-0.3,2.2-0.3,2.6-1c0.6-0.9,1.2-0.5,1.8-0.7
			c1.1-0.2,1,0.7,1.2,1.4c1-0.6,1.9-1.1,2.7-1.6c-1.3-0.3-1.2-1.1-1.1-2c0.1-0.7,0.3-1.3,0.3-2c0-1.4,0.3-1.9,1.6-2.1
			c0.4-0.1,0.8-0.1,1.2-0.1c0.2,0.9,0.1,1.9,1.4,1.9c0.1-1.4,1.1-2.5,0.3-4.2c-0.5-0.9,0.6-0.7,1.1-0.7c0,0.5,0,0.9,0,1.3
			c0,0,0,0.1,0.1,0.1c0.5,1.3,0.8,2.3,0.2,3.8c-0.9,2.1-0.2,4.6-1.3,6.9c-0.9,1.9-0.1,4.2,1.1,6.2c1.2,2,2.4,4,3.6,5.9
			c0.1,0.2,0.5,0.3,0.8,0.5c0.2-0.5,0.4-0.8,0.5-1.2c0.3-1-0.9-2.3,0.5-3.2c0,0-0.1-0.2-0.1-0.3c-0.7-1.3-0.4-2.3,0.8-2.9
			c-0.5-1.1-1-2.1-1.4-3.2c0.6-0.1,0.9-0.1,1.4-0.1c-0.3-0.4-0.4-0.6-0.5-0.8c-0.5-0.7-1.5-1.1-1.1-2.2c0-0.1-0.5-0.5-0.7-0.5
			c-1.2,0.5-1-0.5-1.1-1.1c-0.1-0.5,0.1-1.1-0.1-1.5c-0.4-1.1-0.8-2,0.7-2.4c0.1,0,0.2-0.4,0.3-0.7c0.3,0.3,0.6,0.5,0.6,0.5
			c0.6-0.6,1-1.5,1.6-1.6c0.7-0.1,1.5,0.4,2.1,0.6c0.2-1.4,0.2-2.8,0.8-4c0.7-1.5,0.9-3.8,3.5-3.3c0.5-1.1-0.2-1.7-0.8-2.2
			c-0.6-0.6-1.4-1.1-2.1-1.6c-0.6-0.4-1.2-0.8-1.9-1.3c1.8-0.9,1.9-3.1,0.3-4.2c-0.7-0.4-0.8-0.8-0.4-1.4c0.6,0.4,1,0.7,1.5,1
			c0.8-1.3,0.8-1.2,2.2-0.7c0.7,0.3,1.6-0.1,2.5-0.2c0.1,0,0.2-0.5,0.1-0.6C322.5,22.9,322,22.2,321.6,21.5z M201.1,86.1
			c-1.3-0.8-2.9-0.7-4.4,0.3c-1.3,0.9-3.1,0.4-3.6-1c-0.1-0.2-0.1-0.5-0.1-0.7c0.6-1.6,1.2-3.1,2.2-4.5c0.3-0.4,0.7-0.7,1.2-0.1
			c0.3,0.3,0.8,0.4,1.5,0.6c-1.1,0.5-0.1,0.9,0.1,1.2c0.1,0.2,0.6,0.4,0.8,0.4c0.7-0.2,1.4-0.6,2.4-1c-1-0.2-2,0.4-2.2-1
			c1.1-0.5,2.2-1,3.7-1.6c-0.5,1.2-0.8,2-1.2,3c1,0.7,2.2,1.5,3.3,2.2c0.3,0.2,0.7,0.3,0.9,0.6c0.3,0.4,0.6,1.1,0.5,1.4
			c-0.2,0.4-0.8,0.8-1.3,0.8C203.6,86.8,202.4,86.8,201.1,86.1z M209.8,117.9c-1.4-1.6-3.7-2.6-4.1-5c-1.3-0.7-1.4-1.9-1.7-3.2
			c-0.2-0.7-0.8-1.3-1.2-1.9c-0.2-0.2-0.4-0.4-0.6-0.7c-0.4-0.8-0.7-1.6-1.1-2.4c-0.4-0.8-0.8-1.7-1.1-2.4c0.4-0.2,0.7-0.4,1.2-0.7
			c0.5,0.7,1.1,1.6,1.8,2.4c0.7,0.9,0.9,2,2,2.7c0.3,0.2,0.5,0.7,0.5,1.1c0,1.4,1,2.1,1.7,3.1c1.1,1.5,2.8,2.7,2.7,4.9
			c0,0.8,0.4,1.7,0.6,2.5C210.3,118.3,209.9,118.1,209.8,117.9z M215,91.1c-0.7-0.4-1-0.9-1-1.5c0.1-0.8,0.4-1.6,0.6-2.2
			c-1.2-1.7-2.4-3.4-3.6-5.2c-0.1-0.2,0-0.6,0.1-0.9c0.3-0.8,2.9-2.6,3.8-2.6c1.8,0,1.8,0.1,1.5,2c-0.5,0.2-1.2-0.2-1.5,0.8
			c-0.3,1,0.2,1.8,0.6,1.9c1.1,0.6,1.3,1.6,1.7,2.5c0.8,1.8,1.5,3.7,2.4,5.7C217.7,91.9,216.4,91.9,215,91.1z M129.9,136.9
			c-0.4-0.3-0.9-0.6-1.2-0.9c-1.8-1.9-4.2-1.5-6.5-1.6c-0.3-0.9-2.2-1.9-3.5-1.8c-0.2,0-0.6,0-0.7-0.1c-0.7-0.9-1.4-0.6-2.2-0.2
			c-0.2,0.1-0.5,0.2-0.8,0.3c0.1-0.5,0.4-0.9,0.7-1.2c0.7-0.6,0.9-1.2,0.2-2c-0.2-0.2-0.3-0.4-0.4-0.7c-0.9-2.5-2.8-3.2-5.3-3.3
			c-0.5,0-1.1-0.2-1.6-0.5c-0.8-0.6-1.5-1.4-2.3-2c-0.8-0.6-1.8-1.1-2.7-1.7c-0.1-0.1-0.1-0.5-0.1-0.9c-2.7,1-5.3,0.8-7.4-1.1
			c-0.6,0.4-1.1,0.8-1.7,1.2c-0.1-0.1-0.2-0.2-0.3-0.3c0.2-0.4,0.4-0.8,0.7-1.2c-0.2-0.1-0.3-0.2-0.4-0.1c-1.2,0.5-2.4,1-3.7,1.5
			c-0.2,0.1-0.3,0.3-0.4,0.4c-0.5,0.8-1,1.5-1.5,2.4c-1.1-1.3-2.1-1.7-3.6-1c-0.8,0.5-1.6,0-2.3-0.5c-1.4-1.2-0.8-2.6-0.5-4
			c0.4-1.9,0.4-2.1-1.6-2.4c-0.6-0.1-1.1,0-1.7,0c-0.6,0-1.2,0-2.1,0c0.9-2,1.6-3.7,2.4-5.5c0.1-0.2-0.2-0.7-0.2-0.7
			c-0.9,0.1-1.9,0.1-2.8,0.4c-0.4,0.1-0.6,0.8-0.8,1.2c-0.5,1-0.7,2.2-2.3,1.8c-0.2,0-0.4,0-0.6,0.1c-1.1,0.6-2.1,0-2.6-0.7
			c-0.7-1-1.5-2.3-1.5-3.5c0-2.1,0.5-4.2,0.9-6.3c0.1-0.4,0.7-0.8,1.2-1.1c0.3-0.2,0.7-0.2,1-0.4c1.4-1,2.7-1.1,4.2-0.2
			c0.3,0.2,1.4-0.3,1.5-0.6c0.2-0.8,0.7-0.9,1.3-0.8c1,0.1,2.2-0.4,3.1,0.6c0.1,0.1,0.4,0.2,0.5,0.1c0.5-0.3,1-0.4,1.3,0.2
			c0.2,0.5,0.4,1,0.5,1.5c0.2,1.4,0.6,2.7,1.9,3.7c0.6-1,0.8-1.8,0.5-2.8c-0.3-1-0.4-2.1-0.6-3.2c-0.1-0.9,0.1-1.7,0.9-2.2
			c1.4-1,2.7-2.1,4.2-2.9c1.1-0.7,1.4-1.6,1.2-2.7c-0.1-0.7-0.1-1.4-0.2-2.4c0.4,0.6,0.6,0.9,0.9,1.4c0.6-0.9,1.2-1.8,1.7-2.7
			c0.6-1.1,1.3-1.5,2.3-1.8c0.7-0.2,1.4-0.4,2.2-0.6c-0.7-1-0.4-2.3,0.7-2.8c1-0.4,2-0.7,3-1.1c0.4-0.2,0.8-0.4,1.2-0.6
			c0.1,0.1,0.1,0.2,0.2,0.3c-0.1,0.2-0.4,0.3-0.4,0.5c-0.1,0.4-0.1,0.8-0.2,1.3c0.4-0.1,0.8-0.1,1.2-0.3c0.6-0.3,1.2-0.6,1.8-0.9
			c0.6-0.3,1.2-0.5,2-0.8c-1.2-0.5-2.2-0.6-2.8-1.2c-0.5-0.5-0.5-1.5-0.7-2.3c0,0,0.3-0.1,0.5-0.2c0.2-0.2,0.6-0.6,0.5-0.7
			c-0.1-0.3-0.5-0.6-0.8-0.7c-0.4-0.1-1-0.1-1.4,0.1c-0.9,0.3-1.7,0.6-2.9,1.1c1.4-1.1,2.5-2.2,3.8-2.8c1-0.4,2.2,0,3.4,0.1
			c0.6,0,1.3,0.2,1.9,0.1c0.6-0.1,1.1-0.4,1.7-0.6c0.6-0.3,1.1-0.6,1.7-0.8c0.9-0.3,1.5-0.6,1.7-1.8c0.2-1.6-1.6-1.9-1.5-3.2
			c-1.5-0.3-2.1-1.6-2.8-2.4c0.1-0.6,0.4-1.1,0.3-1.5c-0.4-1.8-0.9-3.6-1.4-5.6c-0.5,0.8-0.9,1.6-1.4,2.1c-0.6,0.5-1.6,1.2-2.1,1.1
			c-0.7-0.2-1.5-1-1-2.2c0.3-0.6,0.3-1.4,0.4-2.2c-1.1-0.3-1.8-1.3-2.2-2.4c-0.1-0.3-0.5-0.5-0.8-0.6c-0.8-0.2-1.7-0.4-2.5-0.5
			c-0.4,0-0.8,0.3-1.3,0.5c0.4,0.9-0.5,1.7-0.4,2.5c0.1,1.2-0.3,2.1-1.2,2.8c-0.6,0.4-0.5,0.8-0.2,1.4c1,2.2,0.8,3.8-1.5,4.9
			c-0.4,0.2-0.8,0.3-1.1,0.5c-0.2,0.1-0.4,0.4-0.4,0.7c-0.1,0.9-0.2,1.8-0.2,2.6c0.1,1.2-0.4,1.9-1.5,2.1c-2-1.9-1.3-3.9-0.6-6.1
			c-2.2-0.2-3.7-1.1-4.9-2.7c-0.8-1-2-1.9-3.5-1.1c0.1-0.7,0.2-1.3,0.2-1.9c0-0.4-0.3-1.2-0.4-1.2c-1.1,0.1-0.8-0.5-0.7-1.1
			c0.4-2.1,2-3.4,3.3-4.9c0.8-1,2.5-0.8,2.8-2.4c0.1-0.4,1.1-0.9,1.4-0.8c1.1,0.5,1.5-0.3,2.1-0.9c0.7-0.6,1.3-1.3,1.9-1.9
			c-0.5,1.1-1,2.1-1.5,3.2c-0.1,0.2-0.1,0.4-0.1,0.5c0.6,1.3,0.9,1.3,2,0.4c0.3-0.3,0.7-0.6,1-0.9c0.2,0.3,0.3,0.6,0.5,0.7
			c0.4,0.3,1,0.7,1.3,0.6c0.8-0.4,0-0.8-0.2-1.1c-0.1-0.2-0.1-0.4-0.2-0.6c-0.9-1-1.8-2-2.7-3c0.1-0.5,0.2-1,0.4-1.5
			c0.2,0.1,0.6,0.1,0.7,0.2c0.9,0.9,1.8,0.5,2.7,0c0.9-0.5,2.1-1,1.3-2.5c-0.1-0.3,0-0.9,0.2-1c1.4-0.9,1.5-1.4,0.6-2.6
			c-0.7-0.9-2.2-1-2.3-0.2c-0.2,1.6-1.6,2.3-2.3,3.5c-0.2,0.3-0.6,0.5-0.9,0.7c-0.1-0.4-0.3-0.8-0.4-1.2c0-0.3,0.1-0.6,0.3-0.8
			c0.6-0.8,0.2-1.4-0.2-2.1c-0.4,0.6-0.8,1-1.2,1.6c-0.4-1.1,0.8-2.5-1-2.8c0.5-0.6,1.1-1,1.2-1.5c0.2-1.4,0.1-2.8,0.1-4.2
			c0.5-0.5,1-1.1,1.5-1.7c1.2,0.5,2.8-0.6,3.6-2.5c-0.4-0.2-0.9-0.4-1.3-0.7c-1-0.6-1.9-0.7-2.5,0.4c-0.5,0.8-1,1.6-1.3,2.4
			c-0.3,0.9-0.5,1.9-1.4,2.5c-1.2,0.7-1.6,2-2.2,3.2c-0.2,0.4,0,1.1,0.3,1.6c0.2,0.4,0.7,0.7,0.9,0.8c-0.3,0.4-0.8,1-0.7,1.1
			c1.1,1.2-0.5,1.5-0.8,1.6c-1.2,0.2-1.4,0.9-1.3,2c-0.8-0.8-0.8-0.8,0-2c-0.2-0.3-0.4-0.7-0.7-0.8c-0.3-0.1-1-0.2-1-0.1
			c-0.4,1.2-1.3,0.8-2.2,0.9c-0.9,0.1-1.3-0.2-2-0.7c-0.6-0.6-1.2-1-1.3-1.9c0-0.3-0.6-0.9-0.7-0.9c-0.6,0.4-1.9-0.5-2,1.1
			c0.8-0.2,1.6-0.3,2.3-0.5c-1.6,0.7-2.9,1.5-3.2,3.4c0,0-0.2,0.1-0.3,0.1c0-0.2,0-0.3,0-0.5c0.1-1.5-0.6-2.2-1.9-2.2
			c-1.2,0.1-2.3,0-3.1-1.1c0.3-0.2,0.5-0.4,0.7-0.4c0.5-0.1,1.2,0.1,1.1-0.7c-0.1-0.6-0.4-0.9-1.1-1.2c-1.1-0.4-2.1-1.2-2.8-2
			c-1.1-1.4-1-1.5-2.5-0.7c-0.1,0.1-0.3,0-0.4,0c0.1-0.5,0.2-1,0.4-1.7c-0.7,0.5-1.2,0.9-2,1.5c0.1-1.4,0.2-2.4,0.3-3.4
			c-0.7,0.9-1.3,1.8-2.6,1.3c0.1-0.2,0.2-0.5,0.4-0.9c-1.4,0.4-2.4,0.7-3.5,0.9c-0.3,0.1-0.7,0.2-0.9,0.1c-1-0.5-1.8-0.2-2.5,1.1
			c-0.5-0.7-0.9-1.3-1.3-2c-0.2-0.4-0.4-0.8-0.7-1.1c-1.4-1.4-3-2.5-4.8-3.3c-0.3-0.1-0.7-0.4-0.8-0.7c-0.4-0.9-1.1-1-2-0.7
			c-0.1-0.8-0.1-1.9-0.4-2c-1.2-0.3-1.4-1.4-2-2.3c-0.4,0.2-0.8,0.5-1.2,0.6c-1.2,0.1-2.4,0.3-3.7,0.7c-1.4,0.5-2.8,0.9-4,1.9
			c-0.7,0.6-1.5,0.9-2.4,0.7c-1.4-0.3-2.3,0.6-2,2.1c0.2,0.8,0.1,1.6,0.1,2.4c0,0.2,0,0.6,0,0.6c1.1,0.4,0.4,1.2,0.4,1.8
			c0,0.8-0.5,1.2-1.3,1c-1.1-0.2-0.8-1-0.4-2.1c-1.9,0.6-3.5,1-5.1,1.5c0.4,0.8,1.1,1.2,0.3,2.1c-0.8,0.8-0.2,1.7,1,1.7
			c1.2,0.1,2.4,0.1,3.5,0.1c-0.2,0.5-0.5,1.2-0.8,1.9c-0.2,0.6-3.1,1.6-3.6,1.3c-0.6-0.3-0.9-0.4-1.2-0.1c-0.6,0.6-1.2,1.2-1.8,1.8
			c-0.7,0.7-1.7,1.3-0.9,2.6c0.1,0.1,0,0.4,0,0.4c-0.9,0.5-0.4,1.2-0.3,1.8c0.1,1.2,1.2,0.3,1.8,0.9c-0.2,0.8-0.4,1.6-0.5,2.4
			c1.3,0.4,2.5,0.7,3.5,1.1c-0.2,0.4-0.6,0.8-0.9,1.4c-1.1,2.1-3.5,2.2-5,3.8c-1.4-0.5-1.9,0.7-2.6,1.3c1.1-0.2,2.1-0.4,3.1-0.7
			c0.7-0.3,1.5-0.6,2.2-1c1.7-0.9,3.3-1.8,5-2.8c0.7-0.4,1.9-1.1,1.9-1.4c-0.4-1.5,0.7-1.5,1.5-1.8c0.2-0.1,0.3-0.3,0.5-0.5
			c0.4-0.4,0.9-0.7,1.3-1.1c0.1,0.1,0.2,0.2,0.3,0.3c-0.6,1-1.2,2-2,3.2c1.5-0.5,2.9-0.9,4.2-1.4c0.3-0.1,0.4-0.7,0.5-1
			c0.1-0.3,0.3-0.6,0.4-0.9c0.4,0.3,0.9,0.5,1.3,0.9c0.7,0.7,1.1,1.8,1.9,2c1,0.3,1.7,0.7,2.4,1.3c0.2,0.2,0.8,0.1,0.9,0.3
			c0.3,0.7,0.5,1.6,0.8,2.3c0.2,0.4,0.5,0.6,1,1.2c0-0.6,0.1-0.9,0.1-1.2c0.1,0,0.2,0,0.2,0c0.2,0.6,0.3,1.3,0.5,1.9
			c1.4-0.2,1.4-0.2,1.2,1.1c-0.1,0.4,0.1,0.8,0.2,1.2c0,0.5,0,1,0,1.5c0,0.3-0.3,0.8-0.2,1c0.9,1.4,0.6,2.7,0.1,4.1
			c0.5,0,0.9,0.1,1.3,0.1c-0.2,0.4-0.4,0.8-0.5,1.1c1.1,0.5,0.5,1.3,0.5,2.1c-0.1,0.6,0,1.1,0.5,1.7c0.9,1.1,1.3,2.6,2.2,4.3
			c-2-0.6-1.7,0.4-1.7,1.4c0,0.9-0.1,1.8-0.3,2.6c-0.6,2.2-2.2,4-1.9,6.5c0,0.2-0.2,0.5-0.2,0.7c-0.1,0.5-0.2,1-0.2,1.5
			c0.3,1.5,0.6,3,0.9,4.5c0,0.2,0,0.4,0,0.6c0.5,1.3,0.5,2.8,2.2,3.4c0.9,0.3,1.4,1.1,1.6,2.1c0.3,1.6,0.6,3.3,1.8,4.6
			c0.6,0.7,0.6,1.3-0.6,1.7c0.6,0.4,1,0.7,1.4,1c0.4,0.4,1.1,0.9,1.1,1.2c-0.3,1.9,1.6,2.1,2.3,3.3c0.1-0.5,0-0.9-0.2-1.2
			c-0.2-0.3-0.6-0.6-0.7-1c-0.3-2.2-1.5-4-2.5-5.8c-0.5-0.8-0.6-1.6-0.1-2.5c0.9,0.2,1.2,0.7,1.4,1.5c0.2,0.8,0.6,1.6,1,2.4
			c0.5,1.2,2.1,1.8,1.9,3.4c0,0.1,0.2,0.2,0.3,0.3c0.8,1,1.7,1.9,2.4,2.9c0.5,0.8,1,1.8,0.5,2.9c-0.2,0.3,0.3,1.2,0.7,1.5
			c0.9,0.7,1.9,1.2,2.9,1.7c1.5,0.7,3.1,1.4,4.7,2c0.4,0.2,1,0.2,1.3,0c1.1-0.7,1.8-0.1,2.4,0.6c0.8,1,1.8,1.5,3,1.8
			c1.6,0.3,3.2,0.7,4,2.4c0.4,0.9,0.6,1.9,1.9,2c0.7,1.8,2.9,0.9,3.8,2.3c0.5-0.8,0.8-1.4,1.2-2c0.9,0.6,1.9,2.6,1.9,3.6
			c0,0.9,0.2,1.9-0.2,2.6c-0.5,0.9-1.4,1.6-2.2,2.3c-1.2,1-1.4,3.3-0.5,4.5c-0.1,0.1-0.1,0.2-0.2,0.3c-1.3,1.2-1.3,2.4,0.2,3.4
			c0.2,0.1,0.4,0.2,0.5,0.4c1.3,2.3,2.5,4.5,3.8,6.8c0.3,0.6,0.7,1.3,1.2,1.7c0.8,0.6,1.7,1,2.5,1.5c1.1,0.8,2.6,1.4,2.7,3.2
			c0.1,2.3,0.2,4.5,0.2,6.8c-0.1,2.7-0.6,5.3-0.2,8c0.2,1.1-0.1,2.2-0.3,3.3c-0.2,1.6-1.2,3.1-0.1,4.7c0.2,0.3-0.1,0.8-0.1,1.2
			c0,0.9-0.5,2.1,1.1,2.3c0.1,0,0.4,0.4,0.4,0.6c0,1.7,0,3.3,0,5.2c-1.5-0.8-1.6,0.2-1.7,0.6c0.5,0.4,1.2,0.6,1.3,0.9
			c0.1,0.6,0.3,1.4-0.7,1.5c0.2,0.6,0.3,1.2,0.4,1.7c0,0,0,0.1,0,0.1c0.3,0.1,0.6,0.1,0.9,0.2c0.4,0.2-0.7,0.7,0.1,1
			c0.3,0.1,0.7,0.7,0.7,1c0,0.8,1.1,1.1,0.6,2.1c-0.1,0.2,1.1,1,1.8,1.5c0.3,0.2,0.8,0.3,1.2,0.5c0.4-0.9-0.3-2.1,1.1-2.3l0,0
			c0,0,0,0,0,0c0,0,0,0,0,0c0.2-0.2,0.5-0.4,0.6-0.4c-0.2-0.9-0.7-1.9-0.5-2.7c0.2-1,1-1.9,1.6-2.8c0.7-1.1,0.7-1.5-0.5-2.1
			c-1.4-0.7-1.4-1.5-0.2-2.4c0.4-0.3,0.7-0.7,0.9-1.1c0.2-0.6,0.2-1.3,0.3-2c0-0.1,0.2-0.2,0.4-0.2c0.2-0.1,0.4-0.1,0.6-0.2
			c-0.2-0.2-0.4-0.6-0.5-0.6c-1.6,0.3-0.8-1-1.2-1.5c0.4,0,0.6,0.1,0.8,0.1c1.4,0.4,1.6,0.2,1.6-1.3c0-0.5,0-1,0-1.2
			c1.3-0.3,2.5-0.5,3.7-0.8c0.7-0.2,1.5-1.8,1.3-2.3c-0.5-0.9-1.1-1.7-1.6-2.6c0.8,0.1,1.6,0.4,2.4,0.4c0.6,0,1.3-0.2,1.6-0.6
			c0.6-0.8,0.9-1.7,1.3-2.6c0.3-0.7,0.6-1.9,0.9-1.9c1.5-0.2,1.3-1.6,2-2.4c0.3-0.3,0.4-1.1,0.2-1.6c-0.3-1.1,0-1.9,0.9-2.4
			c1.5-1,2.7-2.6,4.9-2.4c0.5,0.1,1.2-0.5,1.5-1c0.6-0.9,1.1-1.9,1.3-2.9c0.3-1.9,0.3-3.8,0.5-5.7c0-0.3,0.1-0.7,0.3-1
			c1.1-1.3,2.2-2.5,3.2-3.8c0.2-0.2,0.4-0.6,0.4-0.8c-0.1-0.9-0.1-1.9-0.4-2.7C131.3,137.3,130.4,137.2,129.9,136.9z M89.1,78.6
			c1.2,0.2,1.3,1,1.3,2.2c-0.5-0.3-0.9-0.5-1.2-0.6c-0.3,0.7-0.6,1.5-1,2.3c-0.6-0.2-0.2-1.8-1.6-0.7c0.3-0.6,0.6-0.9,0.6-1.3
			c0-0.4-0.2-0.9-0.5-1.2c-0.3-0.4-0.7-0.3-1.2,0C84.5,80,84.1,81,84,82.2c-0.1,0.9-0.2,1.7-1.4,2c-0.1-0.5-0.2-0.9-0.1-1.3
			c0.2-1.1,0.5-2.1,0.8-3.1c0.3-0.9,1.3-1.4,2.6-1.2c0.6,0.1,1,0.1,1.2-0.5C87.7,78.2,88.4,78.4,89.1,78.6z M84,74.4
			c0.3-0.1,1.1,0.2,1.3,0.5c0.6,0.8,1.5,1.4,1.3,2.6c0,0.1,0.1,0.3,0.2,0.5c-0.7-0.2-1.4-0.7-2.3-0.4c-0.4,0.1-1-0.5-1.4-0.9
			c-1-0.1-2,1.5-3.2-0.2C81.4,75.8,82.7,75,84,74.4z M62.7,41.8c-0.1-0.2-0.2-0.3-0.3-0.5c0.8-0.6,1.6-1.2,2.6-2
			c-1-0.1-1.9-0.3-2.8-0.4c0-0.1,0-0.1,0-0.2c1.8-0.3,3.6-0.5,5.4-0.8c0,0.1,0.1,0.2,0.1,0.3c-0.4,0.2-0.9,0.4-1.3,0.6
			c0.8,0.9,0.8,0.9,2.3,0.5c-0.8,0.8-1,2.1-2.4,1.4c-0.1-0.1-0.4,0.1-0.5,0.2c-0.6,0.6-0.6,0.6-0.9-0.1C64,41.2,63.3,41.5,62.7,41.8
			z M64.3,50.7c0.6-0.4,1.1-1,1.7-1.1c1.5-0.1,0.2-1.2,0.7-1.6c1.6,1.5,1.6,1.5,3.6,0.4c0.3-0.2,0.6-0.3,1.3-0.6
			c-0.3,0.6-0.3,0.9-0.5,1c-1.6,0.8-3.3,1.6-4.9,2.3C65.4,51.5,64.7,51.4,64.3,50.7z M145.6,42.5c1.9,0.3,0.4-1.8,1.4-2.1
			c0.7,2,0.7,2,2.4,1.8c0.5-2.4-1.1-3.7-2.4-5.2c0.2-0.1,0.5-0.3,0.6-0.3c0.5,0.7,1,1.3,1.4,1.9c0.1-0.1,0.2-0.1,0.4-0.2
			c0.1-0.7,0.1-1.4,0.2-2.3c0.2-0.4,1.7,0.1,1.5-1.3c-0.2-0.1-0.4-0.1-0.6-0.2c-0.2-0.1-0.4-0.2-0.7-0.4c0.7-0.1,1.3-0.1,2-0.3
			c0.1,0,0.3-0.7,0.3-0.7c-0.8-0.5-0.3-0.9-0.1-1.4c0.5-1,0.2-2.1-0.7-2.7c-0.6-0.3-0.5-0.6-0.2-1.1c0.7-1.1,1.4-0.1,2.2,0.1
			c0.1-0.8,0.7-1.6-0.7-1.7c-0.1,0-0.2-0.3-0.4-0.5c1.4-0.7-0.4-0.9-0.1-1.3c0.4-0.4,0.9-0.8,1-1.3c0.2-1.4,0.7-2.7,1.6-3.8
			c0.6-0.7,0.1-0.9-0.4-1c0.5-0.2,1-0.4,1.6-0.6c-0.3-0.3-0.6-0.5-1.1-1c1.6,0.8,2.2-0.5,3.1-1.1c1.2-0.7,1.1-1.8-0.1-2.3
			c-0.6-0.3-1.7-0.4-2.1-0.1c-0.8,0.7-1.9,0.6-2.6,1.3c-0.4,0.4-1,0.7-1.5,0.5c0.6-0.8,1.1-1.4,1.5-2.1c0.1-0.2-0.1-0.7-0.2-0.7
			c-0.2-0.1-0.8,0-0.8,0.1c-0.3,1.2-1.3,0.8-2.1,0.8c-0.1,0-0.1-0.1-0.2-0.1c0.3-0.3,0.7-0.5,1.1-0.8c-1.9-1.1-3.6-0.3-5.4,0.1
			c1.4-0.7,2.6-1.5,4.3-1.1c1.2,0.3,2.5-0.2,3.8-0.5c0.7-0.2,0.9-0.8,0.1-1.2c-0.8-0.4-1.6-0.6-2.3-0.9c0.1-0.1,0.3-0.4,0.5-0.7
			c0,0-0.3-0.3-0.4-0.3c-1.5,0-3,0.1-4.4,0.1c-0.3,0-0.5-0.1-1.1-0.2c1.1-0.2,1.9-0.4,2.7-0.4c0.8,0,1.6,0.1,2.5,0.2
			c0-0.5-0.1-0.8-0.3-0.8c-1.4-0.5-2.8-0.8-4.1-1.4c-1.5-0.6-2.2,1.1-3.5,1c-0.7,0-0.7,0.3-1,0.2c-0.8-0.4-1.5,0-1.7,0.8
			c-0.2,1.1-0.8,1.3-2,0.9c0.3,1.4,0.5,2.6,0.7,4c-1.7-0.7-1.2-3.1-3-3.7c0,0.8,0,1.5-0.1,2.1c0,0.2-0.4,0.4-0.7,0.5
			c-0.2,0.1-0.4-0.1-0.6-0.1c0.5-1.5-0.9,0-1-0.5c0.1-0.8,0.2-1.4,0.4-2.3c-0.7,0.2-1.1,0.4-1.6,0.5c-0.5,0.1-1,0.1-1.6,0.1
			c-0.9-0.1-1.2,0.4-1.1,1.3c-0.8-0.9-1.2-0.9-1.5-0.1c-0.1,0.2,0,0.6-0.1,0.8c-0.3,0.4-0.8,1-1.1,1c-1.8-0.1-3.6,1-4.1,2.7
			c0.4,0.2,0.8,0.4,1.4,0.6c-0.4,0.6-0.8,1.2-1.2,1.7c-0.2,0.2-0.7,0.6-0.9,0.5c-1.7-0.6-3.1,0.7-4.7,0.7c-0.7,0-1.4,0.6-0.9,1.4
			c0.6,1,0.9,2.4,2.7,2c0.2,0,0.4,0.1,0.6,0.2c0,0.1,0,0.1,0,0.2c-1.2,0.1-2.4,0.3-3.7,0.4c0.2,1,1.4,1.5,0.6,2.5
			c0,0.1,0.8,0.8,1.2,1.2c0.8-1,1.6,0.1,2.5-0.1c1.4-0.4,2.1,0.9,3.1,1.5c0.7,0.4,0.2,1,0,1.5c0,0.1,0.1,0.3,0.1,0.4
			c0.7,2.6,1.1,5.2-0.2,7.8c-0.2,0.3-0.1,0.7-0.1,1c0.3-0.1,0.7-0.1,1-0.2c0.2,0,0.5-0.1,0.7-0.1c0,0.2,0,0.4,0,0.7
			c0,0.1,0,0.3,0.1,0.4c0.3,0.5,0.5,1,0.8,1.5c-0.1,0.1-0.2,0.1-0.3,0.2c-0.2-0.2-0.3-0.4-0.5-0.5c-0.6-0.2-1.2-0.2-1.8-0.3
			c0,0.9-1.3,1.4-0.5,2.6c0.5,0.7,1,0.5,1.5,0.3c0.7-0.3,0.4-0.7,0-1.1c-0.1-0.1-0.1-0.3-0.2-0.5c0.7,0.3,1.3,0.5,1.9,0.8
			c-0.6,1.2-0.8,2.5-2.4,2.9c0.3,0.1,0.6,0.2,0.9,0.3c-0.6,0.2-1.6,0.3-1.7,0.6c-0.4,1-0.7,2.2-0.8,3.4c0,0.9,0.3,1.9,0.5,2.9h0.8
			c-0.8,1-0.8,1.3-0.3,2.6c0.3,0.6,0.6,1.3,0.8,1.9c0.4,1.8,0.6,2,2.5,1.9c0.1,0.1,0.2,0.2,0.2,0.2c0.1,0.9,0.8,1.4,1.5,1.4
			c0.9,0.1,0.7-0.9,1-1.4c0.8-1.5,1.1-3.2,2.5-4.4c0.2-0.2,0.2-0.7,0.2-1c0-0.4,0.8-1.3,0.9-1.7c0.4-1.1,2-0.2,2.1-1.5
			c0.1,0,0.2,0.1,0.2,0.1c0.4,0.1,1,0.3,1.3,0.1c0.8-0.5,1.6-1,2.1-1.7c1-1.1,1.9-2,3.6-2.2c2.5-0.2,4.6-1.3,6.5-3.3
			C147.5,42.9,146.5,42.7,145.6,42.5z M319.3,157.5c-0.7-1-1.5-1.8-1.7-3.1c0-0.2-0.2-0.4-0.4-0.5c-1.4-0.6-2-1.8-2.1-3.3
			c0-0.8-0.2-1.6-0.4-2.4c-0.1-0.3-0.2-0.7-0.4-0.8c-1.3-0.2-1.1-1.3-1.3-2.1c-0.2-0.6-0.4-1.2-0.6-1.9c-0.5,0.6-0.8,1.2-0.9,1.9
			c-0.4,1.6-0.6,3.2-1,4.7c-0.3,1.1-1,1.3-1.7,0.8c-0.9-0.6-1.9-1.3-2.8-1.9c-1.2-0.9-1.3-1.8-0.2-2.9c0.3-0.3,0.5-0.8,0.8-1.3
			c-0.9,0-1.5,0.1-2,0c-1.1-0.4-2.1-0.6-3.3,0c-1.4,0.6-2.5,1.4-2.7,3.1c-0.7-0.1-1.5,0-1.9-0.8c-0.1-0.2-0.5-0.3-0.8-0.3
			c-1.9,0.5-2.4,2.3-3.6,3.4c-0.8-0.5-1.2-0.4-1.5,0.7c-0.4,1.4-1.2,2.2-2.8,2.5c-2,0.4-4.1,0.9-5.7,2.2c-0.2,0.2-0.6,0.5-0.6,0.7
			c-0.1,1.2-1.1,2.4-0.2,3.7c0.1,0.1,0,0.4-0.1,0.4c-0.7,0.5-0.3,1.1-0.2,1.7c0.3,1.7,0.5,3.4,0.6,5.1c0,0.7-0.2,1.6-0.5,2.2
			c-0.5,1-0.4,1.9,0.7,2.1c0.6,0.2,1.5,0.1,2.1-0.2c1.4-0.7,2.7-1.2,4.3-0.9c0.4,0.1,0.9-0.2,1.4-0.5c0.8-0.4,1.5-1.1,2.4-1.4
			c1.1-0.4,2.2-0.6,3.3-0.7c2.4-0.3,5.9,0.6,5.6,4.2c0,0.1,0.2,0.2,0.3,0.4c0.9-0.8,1.7-1.6,2.5-2.3c0,0.6-0.2,1-0.5,1.4
			c-0.2,0.5-0.5,0.9-0.7,1.4c0,0.1,0.1,0.1,0.1,0.2c0.4-0.3,0.8-0.6,1.3-1c0,0.6-0.2,1.4-0.1,1.4c1.2,0.3,0.8,1.2,0.8,1.9
			c0,1.4,1.8,3.5,3.1,3.4c0.2,0,0.5-0.2,0.7-0.3c0.3-0.2,0.6-0.5,0.9-0.7c0.3,0.6,0.6,1.1,0.8,1.5c1.2-0.5,2.2-1.2,3.3-1.4
			c0.8-0.2,1.2-0.4,1.5-1.3c0.3-1,0.9-2,1.4-2.9c0.7-1.4,1.7-2.7,2.7-3.9c0.9-1.1,1.4-2.7,1.7-4.1c0.4-1.7,0.5-3.4,0.7-5.1
			c0-0.1-0.1-0.2-0.1-0.2C320.5,159.5,319.9,158.5,319.3,157.5z M105.8,22.5c1.6-0.1,2,0,2.9,0.9c0.1,0.1,0.3,0.2,0.4,0.1
			c0.7-0.2,1.4-0.4,2-0.7c0.2-0.1,0.3-0.9,0.2-1c-0.8-0.5-0.4-0.8,0.1-1.1c0.4-0.2,1.1-0.4,1.1-0.7c0.2-0.9,0.8-0.8,1.5-0.8
			c1.2-0.1,2.3-2,1.9-3.2c0.4,0.1,0.7,0.2,1,0.3l0.2-0.3c-0.3-0.3-0.6-0.6-1-1c0.3,0,0.5-0.1,0.8-0.1c1-0.2,2.3-0.1,3.1-0.7
			c1.4-1.1,2.7-2.1,4.4-2.6c0.8-0.3,1.4-0.8,2.3-1.3c-0.5-0.2-0.8-0.4-1.1-0.5c0.6-0.3,1.3-0.2,1.8-0.4c0.9-0.3,1.8-0.7,2.6-1.3
			c0.7-0.6-0.1-1.2-0.4-1.8c-0.1-0.3,0-0.7,0-1c-0.1,0.1-0.2,0.2-0.3,0.3c-2.1-2.1-4.8-2.7-7.5-3.3c-0.1,0.5-0.2,0.9-0.3,1.3
			c-0.3-0.4-0.6-0.7-0.9-0.9c-0.3-0.2-0.6-0.3-0.9-0.4c0,0.3,0,0.7-0.1,1c0,0.1-0.1,0.1-0.2,0.1c-0.2-0.3-0.4-0.6-0.8-1.1
			c-0.1,0.6-0.1,0.9-0.2,1.2c-0.2-0.2-0.4-0.4-0.5-0.6c-0.4,0.6-0.7,1-1,1.5c-0.4-0.4-0.7-0.9-1.1-1.3c-0.6,0.6-1.5,0.9-0.6,2
			c-0.9,0-1.3-1-2.2-0.7c-0.8,0.3-1.8-0.2-2.3,0.6c0.1,0.7,0.1,1.3,0.1,1.8c0,0.6-0.4,1.4-0.1,1.7c0.5,0.7,1.5,1.5,2.1,1.4
			c1.2-0.2,1.8,1,2.8,1.1h-2.2c-0.1,0.5-0.1,0.9-0.2,1.5c-0.1-0.2-0.2-0.3-0.2-0.4c-0.1-1-0.7-1.8-1.7-1.7c-1,0.1-0.9,1.2-0.9,2
			c0,0.5-0.2,0.9-0.4,1.4c-1.1,0.8-2.2,1.5-3.2,2.3c0.1,0.3,0.1,1,0.2,1c1.2-0.1,0.8,0.7,0.8,1.3c0,0.4,0.3,0.7,0.5,1
			c-0.8,0.1-1.1-0.4-1.3-1.2c-0.1-0.3-0.6-0.4-0.9-0.6c-0.1,0.3-0.4,0.6-0.4,0.9c0,0.4,0.1,0.8,0.1,1c-0.8,0.2-1.5,0.3-2.1,0.6
			c-0.4,0.2-0.6,0.7-0.8,1c0.3,0.2,0.6,0.5,1,0.7C104.5,21.9,105.1,22.5,105.8,22.5z M112.8,50c0.5-0.5,0.9-0.9,1.3-1.2
			c0.3-0.3,0.7-0.6,1.1-0.9c0.6-0.6,1.2-1.1-0.2-1.5c-0.3-0.1-0.8-0.4-0.9-0.7c-0.4-1.5-2.1-1.8-2.6-3.1c0.4-0.4,0.5-1.5,1.6-1.2
			c-0.3-0.3-0.6-0.6-0.8-0.7c0.3-0.3,0.6-0.5,0.6-0.7c0-0.2-0.4-0.4-0.6-0.6c-0.1-0.1-0.1-0.3-0.2-0.4c0.8-0.3,0.2-0.8,0-0.9
			c-0.8-0.3-1.2-0.8-1.3-1.7c-0.1-0.5-0.3-1-1.1-0.5c-0.4,0.3-1-0.4-0.9-1c0.2-1.2-0.9-2.6-2-2.4c-0.8,0.1-1.6,0.4-2.4,0.6
			c0.2-1,0.5-2,0.7-3c0-0.2-0.2-0.7-0.4-0.8c-0.8-0.3-3.7,1-3.7,1.7c0,1.2-1.5,1.9-0.9,3.3c-0.3-0.5-0.7-1-0.6-1.4
			c0.4-1.8,1.2-3.4,3.3-4.1c-1.4-0.9-2.4-0.7-3.3,0c-1.6,1.3-2.9,2.8-3.6,4.8c0.6,0.4,1.1,0.7,1.7,1.1c-0.1,0.1-0.1,0.2-0.2,0.3
			c-0.5-0.2-0.9-0.3-1.8-0.7c0.3,0.9,0.3,1.6,0.7,1.9c0.6,0.5,1.3,0.8,2.1,1.1c1.3,0.4,2.6,0.7,3.9,1c0.4,0.1,0.9,0.1,1.3,0.2
			c0-0.4,0-0.8-0.1-1.3c1.3,1.2,1.3,2.6,1.1,4.1c1.5-0.3,1.8,1.1,2.2,1.9c0.3,0.6,0.2,1.5-0.7,2.3c-0.7,0.7-2.5,0.9-1.5,2.9
			c-1.2-0.1-2.1-0.3-3.1-0.3c-0.4,0-0.9,0.3-1.2,0.7c-0.2,0.2-0.2,0.7,0,0.9c0.2,0.3,0.7,0.3,1,0.4c0.2,0,0.4-0.2,0.6-0.2
			c1,0,2.2-0.2,2.6,1.2c0.3,1.2,0.7,2.4,2.1,2.9c0.8,0.3,1.5,0.8,2.3,1.3c0.1-0.1,0.2-0.2,0.3-0.3c-0.4-0.8-0.9-1.7-1.3-2.5
			c0.1,0,0.1-0.1,0.2-0.1c0.7,0.6,1.5,1.1,2.1,1.7c1.3-1.1,1.2-2.6,0.3-3.6c-1.2-1.3-1-2.2-0.1-3.3C112.2,47.5,111.5,49.6,112.8,50z
			 M316,137.3c-0.6-1.1-1.5-1.4-2.4-1.8c-1.4-0.5-2.9-0.8-4.2-1.5c-1.5-0.8-2.5-0.2-3.5,0.8c-0.2,0.2-0.2,0.6-0.4,0.9
			c-0.2-0.1-0.4-0.2-0.6-0.2c-0.3-0.6-0.7-1.1-0.7-1.7c0-0.8-0.4-1-1.1-1.3c-1-0.4-1.6,0.2-2.4,0.7c0.8,0.5,1.4,1,2.1,1.5
			c-0.3,0.1-0.5,0.2-0.7,0.3c0.2,0.4,0.5,0.9,0.7,1.3c0.3-0.1,0.7-0.5,0.9-0.4c1.2,0.4,2.4,0.8,3.5,1.5c0.6,0.4,1,1.1,1.3,1.8
			c0.1,0.2-0.5,0.7-0.7,1.1c-0.1,0.1,0,0.2-0.1,0.4c0.4-0.1,0.8-0.2,1.2-0.2c0.4,0,0.9,0.1,1.1,0.3c0.7,1,1.7,0.7,2.6,0.9
			c0.2,0,0.6-0.2,0.7-0.4c0.8-1.7,2.2-1.9,3.1-0.2c1,1.7,2.6,1.6,4.1,2c-0.8-1-1.5-2.1-2.5-2.9c-0.8-0.7-0.4-1.1,0.1-1.7
			C317.1,138,316.2,137.8,316,137.3z M286.7,124.9c-0.2-0.2-0.8,0-1.1,0.2c-0.4,0.3-0.7,0.9-1.1,1.3c-0.6,0.6-1.2,1.1-1.8,1.6
			c-0.3,0.3-0.6,0.5-1,0.8c-0.5,0.4-1,0.9-1.7,1.4c-1.8-0.3-2.2,0.1-1.5,2.2c0.2,0.5,0.6,0.9,0.7,1.4c0.2,0.6,0.1,1.3,1,1.3
			c0.6,0,1.1,0.2,1.6,0.4c0.6,0.1,1.3,0,1.7,0.4c0.8,0.6,1.3,0.2,1.7-0.3c0.2-0.3,0.2-0.8,0.4-1.1c0.6-1.3,0.8-2.8,2.3-3.5
			c-1.7-2.3-1.4-3.1,0.3-4.5C287.8,125.9,287.3,125.3,286.7,124.9z M212.8,148c-1.7,0.4-2.1,1.2-1.8,3c0.1,0.5,0.1,1.3-0.2,1.7
			c-1,1.1-0.9,2.3-0.8,3.6c0.1,1,0.5,1.6,1.4,1.9c0.7,0.3,2.4-0.6,2.6-1.2c0.8-2.2,1.7-4.5,2.5-6.7c0.2-0.7,0.2-1.5,0.5-2.1
			c1.1-1.5,0.2-2.6-0.3-3.9C215.5,145.9,214.8,147.5,212.8,148z M206.9,38.5c0.4,0.1,0.9,0.2,1.1,0.5c1,1.2,1.8,1.4,3.5,0.6
			c-2.2-1.2-3.3-3-2.7-5.1c0.4-1.6,0.4-3.3,1.6-4.8c1.2-1.4,2-3.1,3.7-4c0.7-0.4,0.8-0.9,0.5-1.6c-0.2-0.4-0.7-0.9-0.9-0.8
			c-0.5,0.1-0.9,0.6-1.3,0.9c-0.6,0.5-1.1,1.3-1.8,1.5c-0.8,0.2-1.3,0.5-1.7,1.1c-0.7,1-1.4,1.9-2.2,3c0.5,0.7,0.5,1.7-0.1,2.6
			c-0.1,0.2-0.3,0.6-0.2,0.7c0.8,0.6,0.1,1.1,0,1.7c0,0.4,0,0.8,0,1.2c0,0.3-0.1,0.7-0.2,0.9C205.6,37.9,205.8,38.3,206.9,38.5z
			 M109.8,11.5c0.2-0.6,0.4-1.2,0.7-1.9c-1.2-0.5-1.6-1.3-1.3-2.5c0.1-0.3,0.1-0.8-0.1-1.1c-0.3-0.6-0.7-1-1.4-0.4
			c0.3,0.3,0.5,0.5,0.7,0.6c-0.4,0.7-2-0.2-1.5,1.4c0,0-0.3,0.2-0.4,0.2c-0.4,0.1-0.8,0.2-1.3,0.4c0.3,0.5,0.6,1,1,1.5
			c-0.5-0.2-0.8-0.3-1.2-0.4c-0.3,0.7-0.6,1.4-0.8,2.1c0,0,0,0.1,0,0.2c0.4,0.4,0.9,0.7,1.3,1.1c-0.9,0.1-1.5,0.2-1.6,1.2
			c-0.2,1.7,0.3,2.4,2,2.3c0.3,0,0.7-0.1,1-0.2c1.1-0.8,2.2-1.5,3.2-2.3c-0.1-0.5-0.1-1-0.2-1.5C109.8,12.1,109.8,11.8,109.8,11.5z
			 M296.8,91.5c-0.4,0.7-1,1.4-1.1,2.1c-0.1,0.6,0.4,1.2,0.8,1.8c0.1,0.2,0.4,0.4,0.7,0.4c0.2,0,0.5-0.3,0.5-0.4
			c0-1.1,0.6-2.3-0.7-3.1c1.2-0.5,2.4-1,3.5-1.4c0,0.3,0,0.5,0.1,0.7c0.2,0.3,0.4,0.6,0.7,0.9c0.2-0.2,0.5-0.5,0.7-0.7
			c0.3-0.3,0.4-0.7,0.8-0.8c0.7-0.4,1.5-0.7,2.3-1c0,0.1,0.1,0.2,0.2,0.4c0.4-0.5,0.5-0.9,0.5-1.4c0-0.5-0.2-1-0.2-1.5
			c0-0.9-0.2-1.7,0.1-2.7c0.5-1.5-0.8-2.7-1.6-4c-1.1,0.6-0.9,1.6-0.6,2.4c0.5,1.4,0.1,2.7-0.4,3.9c-0.3,0.8-0.9,0.8-1.6,0.1
			c-0.2,0.8-0.4,1.6-0.6,2.5C299.1,89.5,297.7,90,296.8,91.5z M72.1,27.3c0.6-0.2,0.9-1.1,1.4-1.3c1.3-0.6,2.3-1.8,3.9-1.6
			c-1,0.7-2,1.3-3,2c-0.3,0.2-0.6,0.7-0.5,0.8c0.2,0.4,0.5,0.7,0.9,0.9c0.3,0.2,0.6,0.1,1,0.2c-0.6,0.2-1.2,0.2-1.7,0.4
			c-0.3,0.1-0.7,0.4-0.7,0.6c0,0.3,0.3,0.8,0.6,0.9c0.6,0.2,1.2,0.3,1.8,0.4c1,0.1,1.5,0.6,1.9,1.6c-1.3-0.3-2.4-0.7-3.6-0.9
			c-0.5-0.1-1.3-0.2-1.3,0.6c0,0.6,0.3,1.3,0.7,1.8c0.2,0.3,0.8,0.4,1.2,0.6c-0.6,1.7-0.5,1.7,1.2,2c1.7,0.3,3.2-0.5,4.8-1
			c0.5,1.2,1.4,1.8,2.8,1.7c0.3,0,0.8-0.3,0.9-0.6c0.1-0.3-0.3-0.6-0.5-1c0.4,0,0.9,0,1.4,0c0.3,0,0.7,0.1,0.8-0.1
			c0.1-0.2,0.1-0.6,0-0.9c-0.3-0.6-0.8-1.2-1.1-1.8c-0.2-0.4-0.4-0.9-0.3-1.1c1-1.7,0.6-4.2,2.9-5.2c0.2-0.1,0.4-0.7,0.3-0.9
			c-0.1-0.2-0.5-0.5-0.8-0.6c-1-0.2-1.2,0.1-1.1,1.4c-0.4-0.2-0.8-0.5-1.4-0.8c-0.7,1.6-1.3,3.1-1.9,4.5c-0.6-1.4,1-2.6-0.3-4
			c-0.1,1-0.5,1.5-1.2,1.3c-0.1-0.6,0-1-0.2-1.4c-0.6-1.2-1.3,0.2-1.9,0.1c0.3-0.6,0.5-1,0.9-1.8c-1.1,0.2-1.8,0.3-2.6,0.4
			c0.4-0.2,0.7-0.4,1.1-0.5c0.7-0.2,1-0.5,0.9-1.2c-0.1-0.7,0-1.5-0.9-1.8c-0.6-0.2-1-0.6-1.6-0.8c-0.8-0.2-1.7-0.4-2.5-0.3
			c-0.3,0-0.5,0.7-0.7,1.1c-0.2,0.3-0.4,0.6-0.7,0.8c-1,0.9-1.9,1.8-2.9,2.7c-0.2,0.2-0.4,0.5-0.3,0.7c0.1,0.7,0.2,1.5,0.3,2.1
			C70.8,27.4,71.6,27.6,72.1,27.3z M275.1,136.1c0.2-0.9,0.2-1.4-0.8-1.8c-0.7-0.3-1.3-1.2-1.5-1.9c-0.2-0.9-0.6-1.3-1.3-1.7
			c-1-0.7-1.8-1.6-2.8-2.2c-1.4-1-2.4-2.8-4.7-2.3c0.4,0.5,0.6,1.1,1,1.3c1.9,1.3,3.2,3.3,4.1,5.3c0.8,1.8,2.1,3,3.4,4.3
			c0.7,0.7,1.4,1,2.5,0.6C275,137.1,275,136.6,275.1,136.1z M162.1,68.7c0.6,0.6,1.2,0.9,1.5,1.4c0.5,0.8-0.2,1-0.8,1.3
			c-0.1,0.1-0.2,0.2-0.2,0.4c-0.2,0.5-0.3,1.1-0.5,1.7c0.4,0.2,1,0.4,1.4,0.5c-0.5,0.4-1,0.8-1.5,1.2c0.1,0.1,0.1,0.2,0.2,0.3
			c1.7-0.3,3.5-0.6,5.2-0.9c0.4-0.1,0.9-2.4,0.6-2.7c-0.1-0.1-0.2-0.2-0.2-0.2c-1,0-1.1-0.9-1.5-1.5c-0.7-1.1-1.5-2.1-2.3-3.2
			c0.2-0.5,0.5-1.1,0.8-1.8c-0.7-0.1-1.2-0.2-1.7-0.3c0.2-0.4,0.4-0.7,0.6-1c-1.7-0.9-1.6,1.2-2.6,1.3c0.2,0.7,0.3,1.4,0.6,2.1
			C161.6,67.9,161.9,68.4,162.1,68.7z M98.6,19.5c-0.1,0.6,0.4,0.9,0.9,1c0.7,0.1,0.8,0.6,0.7,1.1c-0.1,0.5-0.4,0.9-0.7,1.3
			c-0.7,1.1-0.6,2.2,0.4,2.6c1.4,0.5,2.8,0.9,4.2,1.3c0.9,0.2,1.8,0.4,2.7,0.4c1.1,0,1.6-1,1.6-1.8c0-0.5-0.6-1.2-1.1-1.4
			c-0.7-0.3-1.6-0.3-2.4-0.2c-1.4,0.2-2.5-0.2-3.1-1.5c-0.1-0.1-0.3-0.2-0.5-0.4c0.6-0.2,0.9-0.3,1.5-0.4c-0.3-0.6-0.5-1.4-0.8-1.4
			c-0.9,0-1-0.6-1.4-1.2c-0.3-0.4-1-0.5-1.6-0.7C98.7,18.6,98.6,19.1,98.6,19.5z M84.9,15.7c-0.4-0.2-1.2,0.2-1.8,0.5
			c-0.5,0.3-0.8,0.7-1.1,1.2c-0.1,0.1,0.2,0.4,0.4,0.7c-0.2,0-0.4,0-0.6,0c-0.3,0.1-0.6,0.3-0.9,0.4c0.2,0.3,0.3,0.6,0.5,0.9
			c0.2,0.2,0.6,0.4,0.9,0.5c0.8,0.1,1.5,0.1,2.3,0.2c0,0.1,0,0.1,0,0.2c-0.6,0-1.1,0-1.7,0.1c-0.3,0.1-0.5,0.3-0.8,0.5
			c0.2,0.3,0.4,0.7,0.7,0.7c0.7,0,1.4-0.1,2.1-0.1c0.7-0.1,1.4-0.3,2.1-0.2c1.5,0.3,3-0.2,3.6-1.6c0.1-0.3-0.2-1-0.4-1
			c-1.1-0.1-1.2-0.1-1-1.2c0.1-0.5,0.2-1,0.3-1.4c-0.1-0.1-0.2-0.1-0.3-0.2c-0.4,0.5-0.9,1-1.2,1.5c-0.3,0.6-0.4,1.3-0.6,2
			c-1.4,0.1-1.2-0.8-1.4-1.7C85.8,16.9,85.5,16.1,84.9,15.7z M173.8,22.3c0.3,0.6,0.6,1.3,1,1.9c0.4,0.5,0.8,0.4,1-0.2
			c0.1-0.2,0.1-0.5,0.2-0.9c0.8,0.9,0.5,1.4-0.3,1.8c-0.2,0.1-0.2,0.4-0.3,0.6c0.2,0,0.4,0.1,0.7,0.1c0.1,0,0.3,0,0.3,0
			c-0.2,0.4-0.6,1.1-0.5,1.4c0.5,0.8,1.3,1.4,2,2c0.8-2.1,0.4-4.6,2.1-6.4c-1.1-1.1-2.2-2.2-3.4-3.4c-0.1,0.1-0.2,0.1-0.3,0.2V22
			c-0.2-0.8-0.4-1.3-0.6-2c-0.4,0.4-0.6,0.6-1,1c0.1-0.5,0.2-0.8,0.3-1.2c-0.3,0.1-0.5,0.1-0.7,0.2c-1.5,0.5-1.4,0.5-0.6,1.9
			C173.8,21.9,173.7,22.2,173.8,22.3z M335.1,184.9c-1.3,1.6-2.4,3.6-4.5,4.6c-0.3,0.1-0.7,0.3-0.9,0.5c-1.3,0.9-2.6,1.8-3,3.5
			c0.3,0.2,0.7,0.3,0.9,0.5c0.8,1.2,1.7,0.7,2.5,0c0.4-0.3,0.7-0.7,1-1.1c0.9-1,1.2-2.6,2.9-2.7c0.1,0,0.2-0.1,0.2-0.2
			c0.7-0.9,1.4-1.7,2-2.7c0.3-0.5,0.5-1.1,0.4-1.6C336.4,185.3,335.7,185.2,335.1,184.9z M149.7,55.3c1.1,0.3,4.6-1.2,5-2.2
			c0-0.1,0-0.2,0-0.3c-0.2-0.7-0.3-1.5-0.7-2.1c-0.3-0.4-0.9-0.4-1.6-0.1c-1.1,0.4-2.6-0.2-3.3,1.1c-0.4-0.6-0.8-1-1.2-1.5
			c-0.5,0.4-1.1,0.8-1.6,1.3c0.7,0.2,1.5,0.3,1.5,0.5c0.1,0.9-0.8,0.3-1.1,0.6c-0.1,0.1-0.1,0.1-0.2,0.2c1.4,0.6,1.5,0.8,0.7,1.8
			C148.1,54.9,148.9,55.1,149.7,55.3z M90.1,27.1c0,0.5,0,0.9,0,1.3c-0.7-0.4-1.2-0.6-1.6-0.8c0,0.7-0.1,1.3,0.1,2
			c0.1,0.6,0.4,1.3,0.6,1.9c0.1,0.4,0.3,0.7,0.5,1.2c1-0.7,1.9-1.2,2.6-2c1-1.3,0.9-1.9-0.1-2.5c1.6-1,1.6-1,1.2-2.5
			c-0.7,0-1.4,0-2.1,0.2C90.4,25.8,90,26.3,90.1,27.1z M267,14.7c0.2,0,0.5-0.2,0.7-0.4c0.6-0.4,0.8-1.2,1.8-1.3
			c0.5,0,1.3-0.9,0.9-1.9c-0.5-1.3-1.4-0.9-2.3-1c0.1,0.5,0.2,1,0.2,1.4c-1.5-2.1-1.6-2.1-2.5-0.5c-0.5-0.3-1.1-0.6-1.7-0.9
			C263.3,12.3,265,14.7,267,14.7z M340.6,179.4c0-0.1-0.1-0.4-0.2-0.4c-1.5,0-0.8-1.3-0.6-1.6c0.4-1-0.4-1.4-0.9-1.9
			c-0.2,0.3-0.3,0.7-0.3,1c0.1,0.8,0.4,1.7,0.5,2.5c0.1,1.2,0,2.4-1.3,3.2c-0.7,0.4-0.6,0.9-0.1,1.4c0.8,0.7,0.5,1.2,0,1.9
			c-0.2,0.2-0.3,0.4-0.5,0.6c0.5,0.9,1,0.3,1.4,0c1.6-1.2,2.1-3.3,3.8-4.4c0.2-0.1,0.2-0.6,0.4-1.2
			C341.1,180.8,341.1,180.8,340.6,179.4z M298.9,63.8c0.9,1.4,1.5,2.9,1.9,4.5c0.4,1.7,1.1,3.3,1.6,4.9c0-1.1,0.9-0.7,1.4-0.8
			c-1.1-1.6-3.1-2.8-1.2-4.9c0.1-0.1-0.1-0.5-0.3-0.7c-0.6-0.9-1.1-1.9-1.7-2.8c-0.3-0.5-0.6-1-0.8-1.5c-0.6-1.2-1.1-2.3-1.7-3.5
			l-0.5,0.2c0.1,0.3,0.5,0.8,0.4,1C297.5,61.7,298.2,62.8,298.9,63.8z M114.5,74.5c-0.5-1.2,1-1.2,0.4-2.1c-0.2,0.1-0.5,0.1-0.6,0.2
			c-1.1,1.5-2.3,3.1-3.6,4.9c1.3,0,2.3-0.2,3.2,0.1c0.6,0.1,1.4,0.1,1.9,0.7c0.2,0.3,0.4,0.5,0.7,0.7c0,0,0.4-0.3,0.4-0.4
			c0-0.4-0.2-0.7-0.3-1.1c-0.1-0.2-0.3-0.3-0.3-0.4c0.1-0.6,0.2-1.3,0.3-1.9C115.8,75.1,115.1,75.8,114.5,74.5z M288.3,135.5
			c0.1,0.5,0.3,1,0.4,1.5c0.1,0.3,0.3,0.5,0.5,0.8c0.2-0.2,0.4-0.4,0.5-0.7c0.1-0.7,0.2-1.5,0.2-2.2c0.1,0,0.2,0,0.2,0
			c0.3,0.7,0.6,1.4,0.9,2.1c0.5-0.2,0.9-0.4,1.3-0.6c-0.4-0.8-0.8-1.6-1.2-2.3c0.6-0.5,1.2-0.9,1.8-1.4c-0.8,0-1.5,0.1-2.3,0.3
			c-0.3,0.1-0.7,0.2-0.7,0.1c-0.2-0.3-0.4-0.7-0.4-1.1c0-0.2,0.4-0.4,0.7-0.4c0.9,0,1.8,0,2.6,0c0.9,0,1.5-0.2,1.7-0.9
			c-1.2,0-2.4,0.2-3.5,0.1c-1.1-0.1-1.8,0.3-2.1,1.2c-0.2,0.8-0.5,1.7-0.8,2.5C288.2,134.9,288.2,135.2,288.3,135.5z M81,15.6
			c0.8-0.6,1.5-1.2,2.5-2c-0.4,0.9-0.7,1.4-1,1.9c0.1,0.1,0.3,0.2,0.4,0.3c1-1,2.1-1.9,3.1-2.9c0.1-0.1,0-0.9-0.1-0.9
			c-0.7-0.1-1.6-0.2-2.2,0c-1.5,0.6-2.9,1.3-4.4,2c-0.3,0.1-0.6,0.7-0.5,0.8c0.4,0.4,0.8,0.8,1.3,1C80.3,16,80.7,15.8,81,15.6z
			 M304,75.2c-0.5-0.3-0.8-0.7-1.2-1c-0.1,0.1-0.2,0.1-0.3,0.2c0.1,0.5,0.3,1,0.4,1.4c0.1,0.7,0.6,1.5-0.5,2.1
			c-0.6,0.3-0.1,2.4,0.6,2.6c0.2-0.2,0.5-0.4,0.8-0.6c-0.4-0.3-0.7-0.6-0.9-0.8c0-0.1,0.1-0.2,0.1-0.3c0.9,0.1,1.7,0.3,2.4,0.4
			c0.7-0.7,1.3-1.3,2.1-2c-0.4-0.3-0.7-0.7-1.2-0.9C305.5,75.9,304.7,75.6,304,75.2z M179.1,20.6c0.8,0.7,2.8,1,3.4,0.4
			c0.5-0.5,0.8-1.3,1.1-2.1c0-0.1-0.8-0.6-1.3-0.7c-0.6-0.2-1.2-0.3-1.8-0.5c0,0.3,0,0.6-0.1,0.9c-0.3-0.1-0.8-0.1-1-0.3
			c-0.8-1-1,0.3-1.5,0.3c0.2,0.5,0.3,1,0.6,1.4C178.6,20.2,178.9,20.4,179.1,20.6z M93.9,21.1c-0.3,0.4-0.7,0.9-1.1,1.4
			c0.1,0.1,0.2,0.3,0.3,0.4c0.6,0,1.4,0.1,1.7-0.2c0.8-0.9,1.5-2,2.1-3c0.1-0.2-0.1-0.7-0.2-1.1c-0.8,0.3-1-0.8-1.8-0.6
			c-0.1,0.7-0.1,1.4-0.2,2.1c-0.2-0.5-0.4-1-0.7-1.5c-0.3,0.5-0.5,0.9-0.8,1.4c-0.1-1-0.2-1.8-0.3-2.6
			C91.7,19.8,92.1,20.7,93.9,21.1z M157.6,69.7c-0.1,1,0.6,2.1-0.4,3.1c-0.3,0.4,0.4,1,1.1,0.8c0.8-0.3,1.6-0.6,2.2-1.1
			c0.4-0.4,0.2-1.2,0.3-1.9c0-0.2,0.1-0.4,0.3-0.5c0.5-0.6,0.2-1.2-0.3-1.4c-0.6-0.3-1.7-0.6-1.9,0.3
			C158.8,70,158.1,69.6,157.6,69.7z M96.1,12.8c1.5,0.2,1.8,1.1,1.4,2.4c0.1,0.1,0.2,0.2,0.4,0.3c0.3-0.3,0.7-0.5,0.9-0.9
			c0.2-0.3,0.2-0.8,0.4-1c0.8-0.7,0.6-1.4,0.3-2.2c-0.3-0.7-0.7-1.4-1.2-1.9c-0.2-0.2-0.9-0.1-1.3,0.1c-0.1,0,0,0.6,0,1
			c0,0.6,0.6,1.7-0.9,1.3c-0.1,0-0.4,0.2-0.4,0.4C95.8,12.5,96,12.8,96.1,12.8z M290.9,112.6c0-0.8-0.7-0.8-1.3-0.8
			c-0.2,0-0.5,0.5-0.7,0.8c-0.2,0.6-0.3,1.3-0.4,1.9c-0.1,0.8,1,2.6,1.7,2.5c2.2-0.3,3.1,1.3,4.3,2.9c0.5-0.7,0.4-1.4-0.3-1.7
			c-0.7-0.3-1.3-0.5-1.6-1.3c-0.1-0.3-0.7-0.6-1.1-0.7c-1.1-0.2-1.3-0.7-0.9-1.7C290.9,114,290.9,113.2,290.9,112.6z M103.2,197.1
			c0.1-0.1,0.4,0.2,0.6,0.3c0.2,0.1,0.5,0.5,0.7,0.4c1-0.4,2.1-0.8,3.2-1.3c-1.6-0.6-3-1-3.6-2.6c-0.1-0.2-0.7-0.3-1.2-0.4
			c-0.3,1-0.6,2.1-0.8,3.1C102.1,196.6,102.3,197.8,103.2,197.1z M307.6,186c0.1,0.8,0.5,0.9,1.3,0.5c1.5-0.8,2.1-2.1,2.3-3.6
			c-1.2-0.2-2.2-0.4-3.6-0.6C307.6,183.5,307.6,184.7,307.6,186z M282.5,140c-0.1,0-0.1-0.5-0.2-0.8c-0.6-0.1-1.6-0.6-2.3-0.4
			c-1.1,0.4-1.8,0.3-2.7-0.4c-0.9-0.6-1.9-0.3-2.6,0.6c2.7,1.5,5.7,1.4,8.6,2C283.7,140.1,283.2,140,282.5,140z M235.8,13.6
			c1.1-0.8,1-1.6-0.2-2.2c-0.8-0.4-1.7-0.8-2.6-1.1c-0.1,0-0.2,0.1-0.4,0.1c0.4,1.6,0.4,3.2,1.2,4.7
			C234.6,14.5,235.2,14.1,235.8,13.6z M84.8,107.1c-1-0.2-2,0-2.9,1.3c0.9-0.3,1.8-0.8,2.2-0.6c1.4,0.8,3.1,0.4,4.3,1.8
			c0.3,0.4,0.5,1.1,1,1.1c0.9,0.2,1.9,0.2,3-0.6c-1.7-0.8-3.2-1.5-4.7-2.1C86.7,107.7,85.8,107.3,84.8,107.1z M226.6,10
			c0.1,0.6,0,1.5,0.4,1.8c1.1,1,2.6,1.1,4,1.2c0.3,0,0.7-0.2,0.9-0.5c0.1-0.1-0.2-0.5-0.4-0.8c-0.2-0.4-0.3-0.7-0.4-1.1
			c-0.7-1.6-1.8-2-3.5-1.4c-0.1-1.9-1.6-2.5-2.8-3.2c-1.2,1.1-1,2.4-0.5,3.5C224.5,9.9,225.8,9.9,226.6,10z M295.1,121.7
			c-0.7,0.5-1.4,1.3-1.8,1.2c-1.1-0.4-1.3,0.5-2.1,1h2.2c0,1.2,0.4,2,1.8,1.8c0-0.3,0.4-0.9,0.7-1.1c0.1-0.1,0.2-0.3,0.2-0.4
			C295.9,123.2,296,122.2,295.1,121.7z"/>
	</g>
</g>
</svg>
