<svg xmlns="http://www.w3.org/2000/svg" xmlns:xlink="http://www.w3.org/1999/xlink" preserveAspectRatio="xMidYMid" width="40" height="48" viewBox="0 0 40 48">
  <defs>
    <style>

      .cls-2 {
        fill: #434343;
      }
    </style>
  </defs>
  <path d="M32.731,25.502 C32.799,32.767 39.124,35.184 39.194,35.215 C39.140,35.386 38.183,38.660 35.862,42.043 C33.855,44.967 31.772,47.881 28.491,47.941 C25.267,48.001 24.230,46.035 20.544,46.035 C16.859,46.035 15.707,47.881 12.655,48.001 C9.488,48.120 7.077,44.838 5.053,41.925 C0.918,35.964 -2.242,25.083 2.001,17.738 C4.109,14.090 7.876,11.780 11.964,11.721 C15.074,11.662 18.010,13.807 19.911,13.807 C21.811,13.807 25.378,11.227 29.128,11.606 C30.698,11.671 35.105,12.238 37.935,16.368 C37.707,16.509 32.677,19.428 32.731,25.502 M26.672,7.663 C28.354,5.634 29.485,2.809 29.177,-0.002 C26.753,0.095 23.822,1.608 22.084,3.636 C20.526,5.432 19.161,8.307 19.529,11.062 C22.231,11.270 24.991,9.693 26.672,7.663 " id="path-1" class="cls-2" fill-rule="evenodd"/>
</svg>
