<svg xmlns="http://www.w3.org/2000/svg" xmlns:xlink="http://www.w3.org/1999/xlink" preserveAspectRatio="xMidYMid" width="48" height="48" viewBox="0 0 48 48">
  <defs>
    <style>

      .cls-2 {
        fill: #434343;
      }
    </style>
  </defs>
  <path d="M23.999,-0.000 C10.745,-0.000 -0.000,10.745 -0.000,24.000 C-0.000,37.254 10.745,47.999 23.999,47.999 C37.254,47.999 47.999,37.254 47.999,24.000 C47.999,10.745 37.254,-0.000 23.999,-0.000 ZM37.464,17.083 C34.035,17.084 28.664,17.082 25.755,17.083 C23.646,17.084 22.284,17.036 20.808,17.812 C19.074,18.724 17.766,20.415 17.309,22.402 C17.309,22.402 12.531,14.095 12.531,14.095 C19.560,5.919 32.592,7.533 37.464,17.083 ZM29.020,23.941 C29.020,26.712 26.765,28.966 23.994,28.966 C21.223,28.966 18.969,26.712 18.969,23.941 C18.969,21.170 21.223,18.916 23.994,18.916 C26.765,18.916 29.020,21.170 29.020,23.941 ZM11.332,15.692 C12.989,18.579 16.635,24.927 18.016,27.308 C19.823,30.427 23.124,31.356 25.945,30.519 C25.945,30.519 21.068,38.769 21.068,38.769 C10.530,36.701 5.527,24.583 11.332,15.692 ZM23.052,39.023 C24.907,35.898 28.733,29.443 29.932,27.377 C31.523,24.636 31.011,21.100 28.662,18.916 C28.662,18.916 38.250,18.916 38.250,18.916 C41.825,29.057 33.910,39.692 23.052,39.023 Z" id="path-1" class="cls-2" fill-rule="evenodd"/>
</svg>
