<svg xmlns="http://www.w3.org/2000/svg" xmlns:xlink="http://www.w3.org/1999/xlink" preserveAspectRatio="xMidYMid" width="30" height="29" viewBox="0 0 30 29">
  <defs>
    <style>

      .cls-2 {
        fill: #434343;
      }
    </style>
  </defs>
  <path d="M14.997,-0.000 C6.720,-0.000 0.008,6.654 0.008,14.863 C0.008,21.429 4.302,26.999 10.260,28.965 C11.009,29.101 11.283,28.642 11.283,28.249 C11.283,27.896 11.270,26.961 11.262,25.721 C7.093,26.619 6.213,23.728 6.213,23.728 C5.531,22.012 4.548,21.554 4.548,21.554 C3.187,20.632 4.651,20.651 4.651,20.651 C6.156,20.756 6.948,22.183 6.948,22.183 C8.285,24.454 10.456,23.798 11.310,23.418 C11.446,22.457 11.834,21.802 12.262,21.431 C8.933,21.056 5.434,19.780 5.434,14.085 C5.434,12.463 6.018,11.136 6.977,10.097 C6.823,9.721 6.308,8.210 7.124,6.164 C7.124,6.164 8.382,5.764 11.246,7.687 C12.442,7.358 13.724,7.193 14.999,7.187 C16.272,7.193 17.554,7.358 18.751,7.687 C21.613,5.764 22.870,6.164 22.870,6.164 C23.687,8.210 23.173,9.721 23.019,10.097 C23.979,11.136 24.560,12.463 24.560,14.085 C24.560,19.795 21.055,21.051 17.715,21.419 C18.254,21.878 18.733,22.785 18.733,24.171 C18.733,26.158 18.715,27.761 18.715,28.249 C18.715,28.646 18.985,29.108 19.745,28.963 C25.697,26.994 29.988,21.427 29.988,14.863 C29.988,6.654 23.276,-0.000 14.997,-0.000 Z" id="path-1" class="cls-2" fill-rule="evenodd"/>
</svg>
