<?xml version="1.0" encoding="utf-8"?>
<!-- Generator: Adobe Illustrator 18.1.1, SVG Export Plug-In . SVG Version: 6.00 Build 0)  -->
<!DOCTYPE svg PUBLIC "-//W3C//DTD SVG 1.1//EN" "http://www.w3.org/Graphics/SVG/1.1/DTD/svg11.dtd">
<svg version="1.1" id="Layer_1" opacity="0.1" xmlns="http://www.w3.org/2000/svg" xmlns:xlink="http://www.w3.org/1999/xlink"
	 x="0px" y="0px" width="520px" height="580px" viewBox="0 0 520 580" enable-background="new 0 0 520 580" xml:space="preserve">
<g>
	<g>
		
			<rect x="39.6" y="196.7" transform="matrix(0.8662 0.4997 -0.4997 0.8662 117.2949 -28.6623)" fill="#BCB9B0" width="145" height="16"/>
	</g>
	<g>
		
			<rect x="335.3" y="367.3" transform="matrix(0.866 0.5001 -0.5001 0.866 242.3368 -153.6192)" fill="#BCB9B0" width="144.9" height="16"/>
	</g>
	<g>
		
			<rect x="399.8" y="132.2" transform="matrix(0.5002 0.8659 -0.8659 0.5002 381.0083 -250.8215)" fill="#BCB9B0" width="16" height="145"/>
	</g>
	<g>
		
			<rect x="103.9" y="302.4" transform="matrix(0.4946 0.8691 -0.8691 0.4946 382.4694 92.2287)" fill="#BCB9B0" width="16" height="145.1"/>
	</g>
	<g>
		
			<rect x="187.5" y="111.3" transform="matrix(4.411499e-04 1 -1 4.411499e-04 379.21 -140.6864)" fill="#BCB9B0" width="145" height="16"/>
	</g>
	<g>
		<rect x="252" y="388.2" fill="#BCB9B0" width="16" height="146.8"/>
	</g>
</g>
<g>
	<g>
		
			<rect x="294.5" y="216.2" transform="matrix(0.495 0.8689 -0.8689 0.495 383.154 -128.958)" fill="#2090EA" width="16" height="97.8"/>
	</g>
	<g>
		<rect x="252" y="289.3" fill="#2090EA" width="16" height="98.8"/>
	</g>
	<g>
		
			<rect x="170.1" y="258.3" transform="matrix(0.8764 0.4816 -0.4816 0.8764 155.1613 -72.0728)" fill="#2090EA" width="95.8" height="16"/>
	</g>
	<g>
		<path fill="#2090EA" d="M260,397.4l-93-53.7l0-107.4l93-53.7l93,53.7l0,107.4L260,397.4z M183,334.5l77,44.5l77-44.5l0-88.9
			l-77-44.5l-77,44.5L183,334.5z"/>
	</g>
</g>
<g>
	<polygon fill="#1B1B1B" points="259.9,88.4 223.7,67.5 223.7,25.7 259.9,4.7 296.2,25.6 296.2,67.5 	"/>
	<polygon fill="#1B1B1B" points="259.9,575.3 223.7,554.4 223.7,512.5 259.9,491.6 296.2,512.5 296.2,554.3 	"/>
	<polygon fill="#1B1B1B" points="48.9,211 12.7,190.1 12.7,148.2 48.9,127.3 85.1,148.2 85.1,190.1 	"/>
	<polygon fill="#1B1B1B" points="48.9,452.7 12.7,431.8 12.7,389.9 48.9,369 85.1,389.9 85.1,431.8 	"/>
	<polygon fill="#1B1B1B" points="470.1,211 433.9,190.1 433.9,148.2 470.1,127.3 506.3,148.2 506.3,190.1 	"/>
	<polygon fill="#1B1B1B" points="470.1,452.7 433.9,431.8 433.9,389.9 470.1,369 506.3,389.9 506.3,431.8 	"/>
</g>
</svg>
