<svg version="1.1" id="Layer_1" xmlns="http://www.w3.org/2000/svg" xmlns:xlink="http://www.w3.org/1999/xlink" x="0px" y="0px"
	 width="50px" height="50px" viewBox="0 0 50 50" enable-background="new 0 0 50 50" xml:space="preserve">
<g>
	<g>
		<path fill-rule="evenodd" clip-rule="evenodd" fill="#428ACA" d="M40.3,16.2c-0.9-0.9-2.2-1-3-0.2L25,28.9L12.7,16.1
			c-0.8-0.8-2.1-0.7-3,0.2c-0.9,0.9-0.9,2.3-0.2,3.1l13.9,14.5c0,0,0,0,0,0c0,0,0,0,0,0l0.2,0.2c0.4,0.4,0.8,0.5,1.3,0.6
			c0,0,0.1,0,0.1,0c0,0,0.1,0,0.1,0c0.5,0,1-0.2,1.3-0.6l0.2-0.2c0,0,0,0,0,0c0,0,0,0,0,0l13.9-14.5C41.2,18.5,41.1,17.1,40.3,16.2z
			"/>
	</g>
</g>
</svg>
