<svg xmlns="http://www.w3.org/2000/svg" xmlns:xlink="http://www.w3.org/1999/xlink" preserveAspectRatio="xMidYMid" width="32" height="19" viewBox="0 0 32 19">
  <path id="path-1" fill-rule="evenodd" fill="#2090ea" d="M31.425,3.815 C31.425,3.815 17.570,18.270 17.570,18.270 C17.569,18.271 17.569,18.272 17.568,18.273 C17.566,18.274 17.565,18.276 17.563,18.277 C17.563,18.277 17.411,18.436 17.411,18.436 C17.052,18.808 16.576,18.985 16.082,18.990 C16.054,18.992 16.026,18.992 15.998,18.993 C15.970,18.992 15.942,18.992 15.914,18.990 C15.420,18.985 14.943,18.808 14.585,18.436 C14.585,18.436 14.433,18.277 14.433,18.277 C14.431,18.275 14.429,18.274 14.428,18.273 C14.427,18.272 14.427,18.271 14.426,18.270 C14.426,18.270 0.571,3.815 0.571,3.815 C-0.210,3.005 -0.139,1.619 0.728,0.719 C1.595,-0.181 2.930,-0.254 3.711,0.556 C3.711,0.556 15.998,13.375 15.998,13.375 C15.998,13.375 28.285,0.556 28.285,0.556 C29.066,-0.254 30.401,-0.181 31.268,0.719 C32.135,1.619 32.206,3.005 31.425,3.815 Z"/>
</svg>
