<?xml version="1.0" encoding="iso-8859-1"?>
<!-- Generator: Adobe Illustrator 18.1.1, SVG Export Plug-In . SVG Version: 6.00 Build 0)  -->
<!DOCTYPE svg PUBLIC "-//W3C//DTD SVG 1.1//EN" "http://www.w3.org/Graphics/SVG/1.1/DTD/svg11.dtd">
<svg version="1.1" id="Layer_1" xmlns="http://www.w3.org/2000/svg" xmlns:xlink="http://www.w3.org/1999/xlink" x="0px" y="0px"
	 viewBox="0 0 24 24" style="enable-background:new 0 0 24 24;" xml:space="preserve">
<path style="fill:#2090EA;" d="M6.182,12c0.001,0.033,0.011,0.065,0.014,0.097c0.015,0.255,0.099,0.501,0.292,0.687l0.09,0.087l0,0
	l0,0l9.121,8.809c0.449,0.433,1.217,0.394,1.716-0.087c0.499-0.482,0.539-1.224,0.09-1.657L9.288,12l8.218-7.937
	c0.449-0.433,0.408-1.175-0.09-1.657c-0.499-0.482-1.267-0.521-1.716-0.087l-9.211,8.897c-0.192,0.186-0.277,0.432-0.292,0.687
	C6.193,11.935,6.183,11.967,6.182,12z"/>
</svg>
